<svg xmlns="http://www.w3.org/2000/svg" width="370.904" height="138.562" version="1.0"><defs><clipPath clipPathUnits="userSpaceOnUse" id="a"><path d="M0 0h858.898v612.283H0V0z"/></clipPath></defs><g clip-path="url(#a)" transform="matrix(1.22304 0 0 -1.22304 -556.095 556.356)"><path d="M712.074 422.5c-.034 11.994-17.866 24.71-41.599 29.42-6.023 1.192-11.886 1.754-17.352 1.754-17.431-.006-30.93-5.711-32.818-15.305a11.566 11.566 0 0 1-.216-2.233c0-1.595.322-3.206.928-4.808v-14.135c-5.823.973-13.297 1.594-21.47 1.601-7.932-.007-15.202-.593-20.946-1.516l-.002 9.693c.523 1.379.798 2.764.798 4.136 0 .648-.061 1.288-.184 1.925-1.632 8.26-13.23 13.152-28.197 13.16-4.7 0-9.732-.485-14.899-1.508-20.375-4.047-35.692-14.954-35.73-25.274 0-.644.06-1.285.187-1.928.077-.405.184-.804.307-1.195v-17.203c.011-.93.797-1.728 2.128-2.462v-4.473h.37v.105c.033.339.412.702 1.08 1.068l.942-5.98h.365l1.06 6.925c1.783.552 4.192 1.068 7.099 1.468.97.14 2.01.272 3.086.397l2.747-6.436 2.695 6.966c5.146.403 11.033.633 17.29.633.963 0 1.915-.006 2.86-.016l3.393-6.706 3.48 6.53a192.75 192.75 0 0 0 7.994-.475v-4.38h.37v9.34c-.052.834 1.073 1.726 3.152 2.563V389.41h.366v14.88c.995.38 2.176.745 3.54 1.089v-17.15h.37v17.239c1.2.292 2.53.567 3.974.815v-18.948h.37v19.013l.346.06c1.287.216 2.664.419 4.111.606V386.61h.367v20.455c1.582.2 3.25.381 4.992.542v-21.578h.37v21.613c1.79.161 3.658.303 5.59.419v-22.48h.369v22.502c2.018.118 4.105.211 6.25.276v-23.072h.367v23.084c2.273.067 4.605.103 6.987.104v-23.297h.367v23.297c2.384 0 4.718-.037 6.991-.104V385.29h.368v23.07c2.146-.066 4.234-.16 6.253-.277v-22.501h.369v22.479a184.53 184.53 0 0 0 5.59-.42v-21.616h.369v21.582c1.741-.16 3.41-.342 4.99-.542V386.61h.369v20.405c1.445-.187 2.823-.39 4.111-.606l.349-.06v-19.013h.368v18.948a60.91 60.91 0 0 0 3.971-.815v-17.24h.37v17.15a32.03 32.03 0 0 0 3.54-1.087v-14.884h.37v14.743c2.075-.837 3.2-1.728 3.148-2.563v-9.339h.37v3.372c3.979.416 8.476.728 13.308.923l4.037-7.573 3.942 7.782a328.9 328.9 0 0 0 3.35.02c7.299 0 14.163-.27 20.163-.742l3.124-8.072 3.18 7.462c1.262-.147 2.474-.302 3.613-.47 3.398-.47 6.214-1.07 8.294-1.714l1.238-8.089h.362l1.11 7.017c.819-.446 1.277-.89 1.313-1.313v-.107h.368v5.224c1.555.856 2.464 1.79 2.473 2.852v.002h.001v20.044c.15.456.271.923.36 1.399.148.74.214 1.485.214 2.236m-.943-.706c-.283.584-.734 1.148-1.338 1.694v4.231c.87-1.757 1.34-3.496 1.338-5.163v-.762zm-3.24-19.56v7.095c.587-.295 1.1-.596 1.534-.9v-6.981c-.446.27-.959.532-1.535.787m-4.089-1.12l-.342 2.24c2.044-.56 3.729-1.173 4.995-1.809l-.368-2.317c-.87.675-2.33 1.302-4.285 1.886m4.22-2.307l-.96-6.07c-.578.28-1.283.545-2.1.797l-1.096 7.166c1.98-.624 3.398-1.276 4.156-1.893m-24.425 5.542l-.8 2.07c5.025-.369 9.612-.898 13.559-1.56l-.822-1.928c-3.48.572-7.508 1.058-11.937 1.418m11.787-1.767l-2.887-6.763c-1.827.209-3.768.397-5.815.56l-2.936 7.585c4.312-.354 8.239-.826 11.638-1.382m-29.121 2.448c-5.343 0-10.443-.193-15.157-.521l-1.03 1.931a227.945 227.945 0 0 0 17.616.556l-.997-1.968-.432.002m.245-.373l-3.823-7.541a279.971 279.971 0 0 1-7.536-.194l-3.853 7.228c4.66.321 9.694.509 14.967.509l.245-.002m-24.92-1.062c-.069.376-.264.735-.59 1.077l.011.012-.75.78c2.903.383 6.06.701 9.416.947l1.03-1.93a173 173 0 0 1-9.117-.886m-18.501 34.345a12.1 12.1 0 0 0 1.519 1.317v-6.822a13.028 13.028 0 0 1-1.52-1.148v6.653zm-.369-7.01c-.6-.596-1.047-1.215-1.33-1.85v5.283c-.007 1.08.456 2.149 1.33 3.18v-6.613zm82.688 2.467v-7.288c-.62.269-1.28.53-1.983.784v7.368a33.188 33.188 0 0 0 1.983-.864m.37-30.357v7.205a24.737 24.737 0 0 0 1.747-.737v-7.12c-.536.222-1.116.44-1.747.652m-11.086 2.46v7.471c.99-.165 1.94-.339 2.856-.52v-7.423c-.92.164-1.867.321-2.856.471m-28.421 1.875v7.664c1.933 0 3.831-.027 5.699-.077v-7.657c-1.868.045-3.766.07-5.699.07m36.788 4.142a56.29 56.29 0 0 1-2.244.593v7.567c.79-.213 1.534-.434 2.244-.661v-7.5zm.366 7.383a35.288 35.288 0 0 0 1.983-.722v-7.405c-.62.219-1.28.433-1.983.64v7.487zm-61.798 10.624c1.157.188 2.351.364 3.58.525v-7.544a137.355 137.355 0 0 1-3.58-.475v7.494zm-.37-7.547a107.804 107.804 0 0 1-3.179-.523v7.433c1.026.204 2.084.399 3.18.579v-7.49zm4.317 8.118c1.304.168 2.645.319 4.022.455v-7.592a152.204 152.204 0 0 1-4.022-.41v7.547zm20.697 1.246c1.933 0 3.831-.034 5.699-.091v-7.658c-1.868.051-3.766.082-5.699.082v7.667zm-.369-7.67a203.586 203.586 0 0 1-5.647-.087v7.654c1.848.062 3.732.095 5.647.1v-7.666zm-6.017-.1c-1.717-.054-3.4-.13-5.048-.227v7.635c1.647.106 3.331.188 5.048.248v-7.655zm-5.417-.25a170.218 170.218 0 0 1-4.502-.329v7.593c1.465.14 2.964.264 4.502.366v-7.63zm-4.872-.734v-7.831a166.22 166.22 0 0 1-4.022-.375v7.794c1.304.153 2.647.29 4.022.412m.37.034c1.465.128 2.967.239 4.502.332v-7.864a189.318 189.318 0 0 1-4.502-.302v7.834zm4.87.355c1.648.097 3.332.174 5.049.227v-7.889c-1.717-.05-3.4-.117-5.048-.206v7.868zm5.419.24c1.848.056 3.734.085 5.647.088v-7.897a225.386 225.386 0 0 1-5.647-.083v7.892zm6.016.09c1.933 0 3.831-.03 5.699-.084v-7.889a224.08 224.08 0 0 1-5.699.075v7.898zm6.068-.094c1.728-.054 3.426-.125 5.086-.22v-7.868c-1.66.085-3.358.152-5.086.2v7.888zm5.457-.242c1.55-.093 3.064-.203 4.544-.333v-7.832c-1.48.116-2.995.216-4.544.298v7.867zm4.911-.364c1.386-.121 2.739-.26 4.053-.41v-7.792a176.47 176.47 0 0 1-4.053.372v7.83zm4.423-.452a133.6 133.6 0 0 0 3.61-.476v-7.744a149.32 149.32 0 0 1-3.61.43v7.79zm3.978-.53c1.107-.165 2.179-.34 3.215-.527v-7.69c-1.036.168-2.108.33-3.215.477v7.74zm3.584-.59c.99-.183 1.94-.374 2.856-.573v-7.63c-.92.18-1.867.353-2.856.517v7.685zm3.223-.653l.17-.035a67.971 67.971 0 0 0 2.363-.573V412.2a81.52 81.52 0 0 1-2.286.512l-.247.047v7.623zm2.9-.332v7.298a45.41 45.41 0 0 0 2.244-.727v-7.223c-.71.223-1.457.44-2.244.652m-.367.096c-.736.193-1.49.381-2.285.561-.081.018-.166.035-.248.054v7.365c.054-.015.112-.027.167-.038a65.777 65.777 0 0 0 2.366-.634v-7.308zm-2.9.693c-.92.2-1.867.389-2.856.569v7.434a84.02 84.02 0 0 0 2.856-.63v-7.373zm-3.225.636a123.03 123.03 0 0 1-3.215.525v7.493a100.89 100.89 0 0 0 3.215-.581v-7.437zm-3.583.577c-1.168.17-2.371.328-3.61.474v7.548c1.239-.16 2.442-.335 3.61-.522v-7.5zm-3.98.518c-1.316.15-2.667.287-4.053.41v7.592c1.386-.133 2.739-.285 4.053-.452v-7.55zm-4.42.442c-1.48.126-2.995.237-4.544.328v7.63a157.14 157.14 0 0 0 4.544-.361v-7.597zm-4.915.35c-1.66.096-3.358.167-5.086.22v7.656c1.728-.059 3.426-.137 5.086-.242v-7.633zm-5.086 8.238v7.897c1.73-.065 3.425-.16 5.086-.274v-7.866c-1.66.105-3.358.183-5.086.243m-.369.013c-1.868.059-3.766.096-5.699.1v7.896c1.933 0 3.831-.038 5.699-.102v-7.894zm-6.068.097a189.157 189.157 0 0 1-5.647-.108v7.896c1.848.068 3.732.104 5.647.109v-7.897zm-6.017-.12a176.19 176.19 0 0 1-5.048-.25v7.872c1.647.115 3.331.206 5.048.272v-7.894zm-5.417-.276a162.854 162.854 0 0 1-4.502-.364v7.829c1.465.154 2.964.29 4.502.403v-7.868zm-4.872-.4a140.26 140.26 0 0 1-4.022-.448v7.773c1.304.185 2.645.352 4.022.5v-7.824zm-4.388-.494a124.94 124.94 0 0 1-3.58-.517v7.709c1.156.207 2.35.4 3.58.577v-7.77zm-3.95-.576a105.229 105.229 0 0 1-3.18-.57v7.636c1.026.225 2.084.437 3.18.638v-7.704zm-3.548-.643a80.432 80.432 0 0 1-2.831-.623v7.56c.91.24 1.849.473 2.83.693v-7.63zm-3.2-.709a60.77 60.77 0 0 1-2.513-.67v7.481c.784.25 1.599.494 2.455.723.02.008.038.012.058.018v-7.552zm-2.88-.774c-.777-.23-1.516-.47-2.22-.716v7.39c.703.274 1.439.54 2.22.796v-7.47zm-2.589-.846a32.65 32.65 0 0 1-1.962-.778v7.29c.612.295 1.263.585 1.962.866v-7.378zm-2.332-.938c-.626-.282-1.2-.575-1.732-.875v7.172c.526.333 1.1.659 1.732.976v-7.273zm0-.411v-7.108a24.364 24.364 0 0 1-1.732-.784v7.006c.526.301 1.1.597 1.732.886m.37.16a32.02 32.02 0 0 0 1.962.79v-7.206a36.984 36.984 0 0 1-1.962-.704v7.12zm2.332.918c.702.25 1.438.492 2.22.725v-7.292a52.102 52.102 0 0 1-2.22-.649v7.216zm2.586.83a62.216 62.216 0 0 0 2.513.67v-7.361a70.598 70.598 0 0 1-2.513-.606v7.296zm2.882.756c.91.22 1.849.43 2.83.63v-7.432a86.489 86.489 0 0 1-2.83-.567v7.37zm2.83-7.18v-7.682a97.066 97.066 0 0 1-2.83-.51v7.623c.907.2 1.85.389 2.83.569m.37.07a106.6 106.6 0 0 0 3.178.524v-7.74a119.402 119.402 0 0 1-3.179-.473v7.689zm3.548.578c1.157.171 2.351.33 3.58.477v-7.79a135.21 135.21 0 0 1-3.58-.43v7.743zm3.58-7.684v-7.568c-1.231-.12-2.42-.253-3.58-.395v7.53c1.157.156 2.353.3 3.58.433m.367.04c1.304.138 2.647.262 4.022.375v-7.607a184.11 184.11 0 0 1-4.022-.337v7.57zm4.392.406c1.465.116 2.964.219 4.502.304v-7.64c-1.535-.078-3.037-.17-4.502-.275v7.611zm4.87.324c1.647.087 3.332.155 5.049.206v-7.66c-1.717-.044-3.4-.107-5.048-.187v7.64zm5.419.215c1.848.05 3.732.078 5.647.082v-7.665c-1.915-.002-3.797-.03-5.647-.077v7.66zm12.084-.002c1.728-.047 3.426-.112 5.086-.2v-7.636c-1.66.077-3.358.137-5.086.181v7.655zm5.457-.22c1.55-.083 3.064-.184 4.544-.3v-7.609c-1.48.105-2.995.197-4.544.274v7.635zm4.911-.33c1.386-.11 2.739-.235 4.053-.373v-7.57c-1.316.123-2.667.237-4.053.338v7.606zm4.423-.412c1.239-.132 2.442-.277 3.61-.432v-7.527c-1.168.14-2.371.272-3.61.393v7.566zm3.978-.48c1.107-.15 2.179-.312 3.215-.479v-7.477c-1.036.153-2.108.296-3.215.434v7.523zm6.807-1.131c.055-.011.117-.021.173-.033a74.346 74.346 0 0 0 2.36-.52v-7.374c-.739.16-1.496.318-2.291.468-.08.015-.162.028-.242.042v7.417zm2.9-.638c.79-.194 1.534-.394 2.244-.601v-7.307a61.02 61.02 0 0 1-2.244.54v7.368zm2.61-.708a37.757 37.757 0 0 0 1.983-.655v-7.221a42 42 0 0 1-1.983.58v7.296zm2.353-.39v7.389a23.42 23.42 0 0 0 1.747-.811v-7.294c-.536.244-1.116.483-1.747.715m0 7.79v7.108c.636-.29 1.214-.589 1.747-.891v-7.006a23.2 23.2 0 0 1-1.747.788m-.37.144c-.62.241-1.28.476-1.983.705v7.212a33.016 33.016 0 0 0 1.983-.792v-7.125zm-2.35 8.445c-.709.247-1.456.488-2.243.72v7.47c.793-.259 1.53-.528 2.244-.803v-7.387zm-2.61.824a61.05 61.05 0 0 1-2.533.669v7.545a60.095 60.095 0 0 0 2.533-.736v-7.478zm-2.9.756c-.92.218-1.867.426-2.856.622v7.63c.991-.22 1.937-.454 2.856-.696v-7.556zm-3.225.695a102.56 102.56 0 0 1-3.215.573v7.698a95.343 95.343 0 0 0 3.215-.632v-7.64zm-3.583.63c-1.168.186-2.371.358-3.61.517v7.77c1.241-.176 2.438-.375 3.61-.581v-7.705zm-3.98.563c-1.316.165-2.667.313-4.053.447v7.822a131.04 131.04 0 0 0 4.053-.494v-7.775zm-4.42.482c-1.48.139-2.995.26-4.544.361v7.864a138.8 138.8 0 0 0 4.544-.4v-7.825zm-4.544 8.597v7.61c1.55-.122 3.064-.27 4.544-.44v-7.567c-1.48.152-2.995.286-4.544.397m-.37.025c-1.662.115-3.357.209-5.087.274v7.639c1.73-.07 3.425-.171 5.086-.299v-7.614zm-5.456.283c-1.868.065-3.766.102-5.699.102v7.664c1.935 0 3.828-.049 5.699-.119v-7.647zm-6.068.098a166.662 166.662 0 0 1-5.647-.117v7.661c1.848.075 3.732.117 5.647.12v-7.664zm-6.017-.13c-1.717-.067-3.4-.158-5.048-.274v7.632c1.647.13 3.331.23 5.048.301v-7.659zm-5.417-.303a144.166 144.166 0 0 1-4.502-.399v7.586c1.465.17 2.964.318 4.502.443v-7.63zm-4.872-.439a123.04 123.04 0 0 1-4.022-.494v7.526c1.304.203 2.645.385 4.022.55v-7.582zm-4.388-.544a104.177 104.177 0 0 1-3.58-.571v7.456c1.156.23 2.35.439 3.58.635v-7.52zm-3.95-.634a95.575 95.575 0 0 1-3.18-.63v7.377a89.45 89.45 0 0 0 3.18.703v-7.45zm-3.548-.708a75.585 75.585 0 0 1-2.831-.686v7.293c.91.265 1.849.52 2.83.762v-7.369zm-3.2-.78a59.077 59.077 0 0 1-2.513-.737v7.204c.786.276 1.601.544 2.46.799.017.006.037.01.053.016v-7.283zm-2.88-.853a43.287 43.287 0 0 1-2.22-.787v7.105c.703.3 1.439.593 2.22.875v-7.193zm-2.589-.928a31.92 31.92 0 0 1-1.962-.857v6.993c.612.325 1.263.645 1.962.953v-7.089zm-2.332-1.032c-.626-.31-1.2-.63-1.732-.96v6.863c.526.365 1.1.723 1.732 1.072v-6.975zm-3.62-2.83c.432.404.936.804 1.519 1.195v-7.136c-.57-.34-1.077-.69-1.52-1.047v6.987zm0-7.464c.432.369.936.731 1.519 1.086v-6.974a13.801 13.801 0 0 1-1.163-.695c-.12.025-.235.049-.356.072v6.511zm1.519-6.312v-.516c-.212.046-.425.094-.643.14.204.126.419.251.643.376m.37.199c.524.273 1.104.54 1.73.8v-2.023a48.35 48.35 0 0 1-1.73.426v.797zm2.1.953a35 35 0 0 0 1.963.708v-3.59c-.597.207-1.255.41-1.962.606v2.276zm2.333.826c.7.224 1.442.443 2.22.653v-5.5c-.592.344-1.337.682-2.22 1.005v3.842zm2.586.753c.8.211 1.639.413 2.513.61v-7.62a72.062 72.062 0 0 1-1.015-.21l-.912.95a5.01 5.01 0 0 1-.586.445v5.825zm2.513-7.39v-.893l-.713.745c.235.051.473.099.713.149m.369.075c.904.18 1.852.35 2.83.514v-4.818l-2.83 2.952v1.352zm3.2.577c1.021.168 2.084.327 3.178.477v-7.525c-.438-.055-.887-.107-1.315-.164l-1.864 1.945v5.267zm30.027-6.014c5.018-.039 9.823-.229 14.288-.546l.798-2.069c-4.946.391-10.379.625-16.084.645l.998 1.97zm28.623-2.199c.462-.078.92-.158 1.363-.24a64.308 64.308 0 0 0 4.983-1.1l.34-2.23c-1.92.552-4.28 1.07-7.014 1.56-.16.028-.33.055-.493.083l.82 1.927zm11.164 4.96v7.265c.588-.325 1.1-.657 1.535-.993v-7.137c-.446.298-.959.586-1.535.865m0 7.703v6.969c.588-.357 1.1-.722 1.535-1.093v-6.827c-.446.325-.959.64-1.535.95m1.535 6.354c-.446.359-.959.711-1.535 1.055v5.912a21.14 21.14 0 0 0 1.535-2.365v-4.602zm-1.903 1.26c-.536.3-1.116.593-1.747.876v7.277a.587.587 0 0 1 .028-.012l.01.022a29.611 29.611 0 0 0 1.709-1.982v-6.182zm-4.1 9.586v.892c.61-.54 1.189-1.082 1.734-1.629-.549.251-1.125.497-1.734.737m-.366.146c-.714.273-1.456.537-2.244.793v2.097a46.622 46.622 0 0 0 2.244-1.818v-1.072zm-2.611.906c-.809.253-1.654.496-2.533.732v3.308a49.623 49.623 0 0 0 2.532-1.781v-2.26zm-2.9.83c-.922.242-1.866.474-2.856.695v4.486a58.049 58.049 0 0 0 2.856-1.735v-3.445zm-3.225.773c-1.033.223-2.11.432-3.215.63v5.667a66.687 66.687 0 0 0 3.215-1.684v-4.613zm-3.583.696a115.46 115.46 0 0 1-3.61.58v6.826a75.874 75.874 0 0 0 3.61-1.625v-5.781zm-3.98.63a125.85 125.85 0 0 1-4.053.49v7.567c.564-.066 1.143-.121 1.695-.195.8-.3 1.586-.611 2.358-.93v-6.933zm-4.053 8.429v.051c.069-.024.135-.049.204-.075-.069.01-.136.018-.204.024m-.367.044c-1.48.167-2.995.313-4.544.436v1.13a89.546 89.546 0 0 0 4.544-1.433v-.133zm-4.915.464c-1.661.128-3.356.228-5.086.299v2.192a92.786 92.786 0 0 0 5.086-1.284v-1.207zm-5.455.316a149.36 149.36 0 0 1-5.699.12v3.185c1.303-.2 2.612-.421 3.933-.682.594-.118 1.18-.244 1.766-.371v-2.252zm-6.068.115a157.2 157.2 0 0 1-5.647-.126v4.03a89.67 89.67 0 0 0 5.647-.65v-3.254zm-6.017-.14a154.87 154.87 0 0 1-5.048-.303v4.637a83.634 83.634 0 0 0 5.048-.263v-4.072zm-5.417-.336a132.291 132.291 0 0 1-4.502-.44v5.089c1.03.044 2.077.066 3.14.066.446-.001.909-.027 1.362-.035v-4.68zm-4.872-.483a114.988 114.988 0 0 1-4.022-.545v5.338a68.46 68.46 0 0 0 4.022.316v-5.109zm-4.388-.6a99.452 99.452 0 0 1-3.58-.628v5.477a58.57 58.57 0 0 0 3.58.503v-5.353zm-3.95-.698a82.567 82.567 0 0 1-3.18-.696v5.498c1.027.255 2.081.487 3.18.686v-5.488zm-3.548-.78a69.303 69.303 0 0 1-2.831-.755v5.404c.907.302 1.849.58 2.83.833v-5.483zm-3.2-.86a55.834 55.834 0 0 1-2.513-.81v5.228c.797.346 1.639.667 2.513.967v-5.385zm-2.88-.936a42.324 42.324 0 0 1-2.22-.867v4.968c.654.363 1.339.71 2.062 1.037.051.023.108.043.159.065v-5.203zm-2.589-1.022a30.705 30.705 0 0 1-1.962-.94v4.59c.608.438 1.264.859 1.962 1.261v-4.91zm-2.332-1.133a20.61 20.61 0 0 1-1.732-1.052v4.077c.525.514 1.1 1.01 1.732 1.487v-4.512zm-2.101-1.3c-.57-.41-1.077-.829-1.52-1.258v3.304c.431.66.94 1.295 1.52 1.905v-3.951zm-1.888-1.65c-.6-.654-1.047-1.33-1.33-2.023v.084c0 .664.058 1.314.184 1.957.208 1.066.594 2.09 1.146 3.068v-3.087zm-1.33-10.52c-.01.975.452 1.943 1.33 2.88v-6.95c-.6-.545-1.047-1.107-1.33-1.688v5.758zm0-7.164c-.017.881.446 1.762 1.33 2.618v-6.118c-.432.083-.877.164-1.33.24v3.26zm10.937-7.175l7.154-7.464c-2.102 1.101-5.657 2.023-10.28 2.832-7.595 1.281-18.075 2.073-29.652 2.073-11.577 0-22.056-.792-29.65-2.073-4.614-.807-8.163-1.727-10.27-2.825l7.156 7.466c2.845 2.65 16.477 5.215 32.764 5.203 16.294.012 29.924-2.553 32.778-5.212m-74.819-9.62c-1.4.142-2.86.266-4.368.374l.856 1.607c1.575-.116 3.099-.251 4.564-.404l-.466-.484.008-.008c-.329-.343-.526-.705-.594-1.084m-17.762.847c-.12 0-.234-.004-.352-.004l-.83 1.638c.395.002.786.005 1.183.005 4.883 0 9.545-.17 13.846-.479l-.857-1.606c-4.04.28-8.413.446-12.99.446m12.8-.804l-3.28-6.153a237.03 237.03 0 0 1-6.434.16l-3.251 6.426h.165c4.507 0 8.814-.159 12.8-.433m-37.908-.999l-.687 1.61c3.368.561 7.277 1.012 11.56 1.327l-.668-1.725c-3.787-.308-7.226-.723-10.205-1.212m10.057.827l-2.499-6.452a153.6 153.6 0 0 1-4.952-.48l-2.456 5.754c2.898.473 6.235.876 9.907 1.178m-20.835-3.986l-.305 1.929c1.074.537 2.501 1.058 4.232 1.535l-.286-1.867c-1.65-.494-2.888-1.023-3.641-1.597m3.578 1.182l-.933-6.092a13.364 13.364 0 0 1-1.763-.668l-.816 5.162c.642.514 1.841 1.068 3.512 1.598m70.795 18.24c-.243.466-.61.92-1.09 1.358v5.885c.722-.787 1.104-1.597 1.09-2.41V418.9zm-2.708-2.179v4.279a9.944 9.944 0 0 0 1.252-.896v-3.14c-.428-.08-.844-.16-1.252-.243m-16.637-11.21c-.343.037-.697.07-1.046.104v6.438a133.11 133.11 0 0 0 3.022-.365v-4.114l-1.976-2.062zm-24.016.88v6.521c1.588.041 3.2.065 4.841.065v-6.526c-1.641 0-3.253-.023-4.84-.06m-21.956-1.949v6.318c.772.152 1.57.298 2.402.437v-6.359a91.15 91.15 0 0 1-2.402-.396m-6.744 24.3c.514.246 1.066.486 1.65.719V423.2a27.39 27.39 0 0 1-1.65-.65v6.193zm68.982-.567c-.44.271-.914.537-1.431.795v5.922c.52-.288.995-.585 1.431-.888v-5.829zm.37 5.56c.478-.357.896-.719 1.252-1.089v-5.643a10.94 10.94 0 0 1-1.252.944v5.789zM508.187 416.4c.593.19 1.214.373 1.874.552v-6.441a49.44 49.44 0 0 1-1.874-.496v6.385zm-.368-6.49a34.94 34.94 0 0 1-1.649-.531v6.301c.516.206 1.062.407 1.65.602v-6.372zm58.835 14.748c-.764.183-1.552.358-2.374.521v6.494a61.28 61.28 0 0 0 2.374-.582v-6.433zm.367 6.338l.016-.004c.73-.197 1.42-.405 2.089-.616v-6.362c-.675.19-1.373.38-2.105.558v6.424zm-3.11-5.744c-.866.17-1.758.33-2.682.482v6.556c.926-.169 1.817-.35 2.681-.538v-6.5zm-3.05.54c-.978.156-1.984.302-3.022.434v6.615a90.8 90.8 0 0 0 3.022-.486v-6.562zm-21.151-5.35c-1.64 0-3.253-.027-4.84-.07v6.52c1.587.05 3.199.077 4.84.079v-6.529zm.37 6.526a150.7 150.7 0 0 0 4.796-.083v-6.519c-1.57.047-3.172.07-4.796.074v6.528zm5.164-.096a147.75 147.75 0 0 0 4.281-.211v-6.501a163.07 163.07 0 0 1-4.28.194v6.518zm4.65-.237c1.3-.088 2.57-.191 3.811-.31v-6.469c-1.243.108-2.51.205-3.811.284v6.495zm4.18-.346a124 124 0 0 0 3.398-.385v-6.426c-1.103.127-2.236.242-3.398.346v6.465zm3.765-.431c1.038-.137 2.045-.285 3.022-.443v-6.38c-.977.142-1.986.274-3.022.397v6.426zm-.367.416c-1.103.14-2.236.266-3.398.378v6.664c1.162-.128 2.295-.268 3.398-.423v-6.62zm-3.767.414c-1.241.118-2.512.219-3.811.306v6.703c1.3-.097 2.57-.21 3.811-.341v-6.668zm-4.18.333c-1.398.09-2.827.16-4.28.21v6.727c1.453-.056 2.882-.134 4.28-.234v-6.703zm-4.65.223a162.36 162.36 0 0 1-4.795.094v6.726c1.624-.004 3.224-.036 4.796-.093v-6.727zm-5.165.097a165.596 165.596 0 0 1-4.84-.088v6.726c1.587.055 3.199.086 4.84.086v-6.724zm-5.21-.1c-1.463-.05-2.904-.12-4.313-.207v6.703c1.412.097 2.847.177 4.314.232v-6.727zm0-.361v-6.519a166.517 166.517 0 0 1-4.313-.186v6.5c1.408.09 2.85.156 4.314.205m-4.682-6.728a156.69 156.69 0 0 1-3.847-.277v6.467c1.253.119 2.535.223 3.847.309v-6.499zm-4.215-.31a123.768 123.768 0 0 1-3.43-.348v6.43c1.112.142 2.257.27 3.43.383v-6.466zm-3.798-.39a109.56 109.56 0 0 1-3.044-.399v6.385c.985.159 2 .305 3.044.44v-6.426zm-3.412-.451a98.359 98.359 0 0 1-2.707-.443v6.331c.872.174 1.774.338 2.707.49v-6.378zm-3.078-.51a77.123 77.123 0 0 1-2.402-.479v6.277c.772.184 1.57.362 2.402.53v-6.328zm-2.77-.559l-.193-.04a66.089 66.089 0 0 1-1.924-.472v6.22c.643.186 1.31.366 2.008.536.036.01.075.018.11.028v-6.272zm-2.485-.61a47.645 47.645 0 0 1-1.874-.541v6.146a38.59 38.59 0 0 0 1.874.608v-6.212zm.368-.275c.643.167 1.307.33 2.005.486l.113.023v-6.488l-.189-.038a67.863 67.863 0 0 1-1.929-.432v6.449zm2.485.59c.772.167 1.57.328 2.402.48v-6.542a88.084 88.084 0 0 1-2.402-.436v6.497zm2.773.545a90.69 90.69 0 0 0 2.707.445v-6.59c-.932-.127-1.834-.262-2.707-.403v6.548zm3.075.498c.985.143 1.998.277 3.044.4v-6.632a135.704 135.704 0 0 1-3.044-.363v6.595zm3.411.442c1.113.128 2.258.245 3.43.348v-6.67a148.639 148.639 0 0 1-3.43-.313v6.635zm3.8.38c1.252.108 2.534.202 3.846.28v-6.698a164.868 164.868 0 0 1-3.847-.253v6.672zm4.214.302c1.408.081 2.85.141 4.314.186v-6.717a186.23 186.23 0 0 1-4.314-.169v6.7zm4.682.196c1.588.045 3.2.071 4.841.071v-6.724c-1.641 0-3.253-.024-4.84-.064V420zm5.21.07a172.1 172.1 0 0 0 4.797-.075v-6.725c-1.574.043-3.17.07-4.796.074v6.726zm5.165-.088a147.24 147.24 0 0 0 4.281-.193v-6.7c-1.396.074-2.828.128-4.28.171v6.722zm4.65-.212a146.04 146.04 0 0 0 3.811-.286v-6.67a155.86 155.86 0 0 1-3.811.258v6.698zm4.18-.318c1.162-.104 2.296-.22 3.398-.348v-6.64c-1.105.118-2.235.224-3.398.32v6.668zm3.765-.393c1.036-.125 2.045-.257 3.022-.4v-6.597c-.978.13-1.984.251-3.022.363v6.634zm3.39-.452c.927-.14 1.814-.291 2.681-.447v-6.547c-.864.14-1.757.274-2.68.4v6.594zm0 .375v6.375a84.155 84.155 0 0 0 2.681-.489v-6.33c-.867.157-1.755.305-2.68.444m3.05 5.815a68.227 68.227 0 0 0 2.374-.528v-6.274a75.19 75.19 0 0 1-2.374.475v6.327zm2.74-.615a51.695 51.695 0 0 0 2.105-.562v-6.213c-.674.176-1.37.348-2.104.512v6.263zm2.474-.668a37.691 37.691 0 0 0 1.854-.606v-6.142c-.586.185-1.205.366-1.854.54v6.208zm0 .394v6.352a34.315 34.315 0 0 0 1.854-.667v-6.284c-.588.205-1.203.406-1.854.599m2.225 5.544c.582-.235 1.12-.476 1.632-.724v-6.197c-.512.222-1.053.44-1.632.648v6.273zm2.002-.902c.52-.264.995-.534 1.431-.807v-6.095c-.44.248-.914.488-1.431.723v6.179zm-.37.596c-.512.245-1.053.482-1.632.712v6.029c.582-.259 1.12-.524 1.632-.796v-5.945zm-2.003.854a38.1 38.1 0 0 1-1.854.658v6.117a33.572 33.572 0 0 0 1.854-.734v-6.04zm-2.222.775c-.675.212-1.373.418-2.105.616v6.195c.004-.003.01-.003.014-.005.73-.218 1.421-.445 2.09-.679v-6.127zm-2.472.71a67.15 67.15 0 0 1-2.374.575v6.27a59.74 59.74 0 0 0 2.374-.64v-6.205zm-2.744.653a73.56 73.56 0 0 1-2.68.53v6.34a69.057 69.057 0 0 0 2.68-.592v-6.278zm-3.05.595a88.47 88.47 0 0 1-3.021.48v6.401a83.2 83.2 0 0 0 3.022-.534v-6.347zm-3.388.531a111.64 111.64 0 0 1-3.398.418v6.454c1.162-.14 2.295-.294 3.398-.464v-6.408zm-3.767.456a134.84 134.84 0 0 1-3.811.339v6.497c1.3-.106 2.57-.232 3.811-.377v-6.459zm-4.18.366c-1.398.1-2.828.177-4.28.234v6.522a119.69 119.69 0 0 0 4.28-.256v-6.5zm-4.65.246c-1.57.058-3.171.094-4.795.102v6.523c1.624-.004 3.224-.039 4.796-.101v-6.524zm-5.165.104c-1.641 0-3.253-.034-4.84-.086v6.509c1.588.06 3.197.1 4.84.1v-6.523zm-5.21-.097a137.146 137.146 0 0 1-4.313-.231v6.48a119.7 119.7 0 0 0 4.314.253v-6.502zm-4.681-.256a120.605 120.605 0 0 1-3.847-.336v6.443c1.253.143 2.535.266 3.847.37v-6.477zm0-.37v-6.702a143.79 143.79 0 0 1-3.847-.304v6.666c1.253.13 2.535.244 3.847.34m-4.215-7.04a132.19 132.19 0 0 1-3.43-.38v6.624c1.111.154 2.26.291 3.43.416v-6.66zm-3.798-.426a99.188 99.188 0 0 1-3.044-.433v6.562c.988.173 1.997.339 3.044.489v-6.618zm-3.412-.49a84.123 84.123 0 0 1-2.707-.481v6.502c.87.188 1.78.363 2.707.53v-6.552zm-3.078-.554a74.945 74.945 0 0 1-2.402-.523v6.43c.773.202 1.57.4 2.402.585v-6.492zm-2.77-.61a52.612 52.612 0 0 1-2.117-.56v6.362a52.01 52.01 0 0 0 2.118.617v-6.419zm-2.485-.665a39.168 39.168 0 0 1-1.874-.6v6.281c.596.23 1.213.456 1.874.671v-6.352zm-2.242-1.128v-6.135a31.168 31.168 0 0 1-1.649-.585v6.057a27.08 27.08 0 0 0 1.65.663m-2.02-6.864c-.52-.21-1.001-.427-1.446-.65v5.95c.441.252.92.5 1.447.742v-6.042zm0-.4v-6.287a20.236 20.236 0 0 1-1.446-.592v6.206c.441.227.918.452 1.447.672m0-6.683v-6.127a21.59 21.59 0 0 1-1.447-.535v6.05c.441.208.918.412 1.447.612m.37.132c.515.189 1.061.371 1.648.547v-6.206a34.94 34.94 0 0 1-1.649-.48v6.14zm2.016.655c.593.172 1.214.34 1.874.5v-6.27a51.55 51.55 0 0 1-1.874-.449v6.219zm2.242.588c.642.153 1.304.299 2 .439l.118.022v-6.31l-.185-.033c-.671-.128-1.31-.26-1.933-.395v6.277zm5.258 1.03c.872.143 1.774.28 2.707.404v-6.402c-.932-.115-1.834-.237-2.707-.366v6.365zm3.075.454c.985.129 2 .251 3.044.364v-6.443c-1.044-.1-2.059-.21-3.044-.33v6.41zm3.411.403c1.113.116 2.258.222 3.43.316v-6.475a166.94 166.94 0 0 1-3.43-.286v6.445zm3.8.346c1.252.096 2.534.182 3.846.254v-6.502a181.968 181.968 0 0 1-3.847-.23v6.478zm4.214.273c1.408.074 2.85.13 4.314.17v-6.518a210.953 210.953 0 0 1-4.314-.155v6.503zm9.893.241a183.59 183.59 0 0 0 4.796-.073v-6.513c-1.57.039-3.172.058-4.796.061v6.525zm5.164-.083a183.94 183.94 0 0 0 4.281-.172v-6.5a196.7 196.7 0 0 1-4.28.158v6.514zm4.65-.19c1.302-.073 2.568-.16 3.811-.258v-6.477c-1.243.089-2.51.17-3.811.236v6.5zm4.18-.29c1.163-.094 2.293-.203 3.398-.319v-6.44a148.94 148.94 0 0 1-3.398.288v6.47zm7.155-.77a108.91 108.91 0 0 0 2.681-.403v-.48l-2.68-2.798v3.68zm3.051-.462c.01-.001.02-.002.03-.005l-.03-.031v.036zm.342.321c-.11.019-.23.036-.342.054v6.538a72.12 72.12 0 0 0 2.374-.476v-4.023c-.042-.035-.09-.072-.128-.107l-1.904-1.986zm2.399 6.038c.736-.164 1.43-.338 2.105-.515v-2.081c-.867-.347-1.573-.707-2.105-1.073v3.669zm2.473-.615c.649-.176 1.27-.357 1.854-.545v-.675a28 28 0 0 1-1.854-.618v1.838zm2.225-.66c.251-.083.48-.17.719-.254a32.265 32.265 0 0 1-.719-.199v.453zm1.357-.09c-.43.163-.883.322-1.357.478v6.129c.582-.214 1.12-.434 1.632-.659v-5.881c-.093-.023-.185-.044-.275-.068m.645 5.787c.52-.24.995-.486 1.431-.736v-4.577c-.494-.104-.97-.209-1.431-.318v5.63zm1.801-.52v6.058a9.784 9.784 0 0 0 1.252-.988v-5.93a10.84 10.84 0 0 1-1.252.86m1.618 5.213v5.59c.72-.866 1.1-1.76 1.09-2.663v-4.41c-.243.508-.61 1.005-1.09 1.483m0 6.129v2.543c.448-.81.763-1.657.934-2.538a8.615 8.615 0 0 0 .154-1.627c-.244.556-.609 1.097-1.088 1.622m-.366.385c-.366.353-.785.697-1.252 1.033v3.3a11.23 11.23 0 0 0 1.252-1.606v-2.727zm-1.622 1.284c-.44.298-.914.588-1.431.872v3.779c.517-.392.999-.8 1.431-1.224v-3.427zm-1.801 1.064a25.89 25.89 0 0 1-1.632.782v4.135c.581-.336 1.123-.69 1.632-1.057v-3.86zm-2.003.937a34.06 34.06 0 0 1-1.854.725v4.405c.032-.015.067-.027.098-.04a25.03 25.03 0 0 0 1.756-.886v-4.204zm-2.222.852c-.675.234-1.373.461-2.105.677v4.562a28.954 28.954 0 0 0 2.105-.812v-4.427zm-2.472.782a58.44 58.44 0 0 1-2.374.631v4.65a36.914 36.914 0 0 0 2.374-.7v-4.58zm-2.744.719c-.865.206-1.757.4-2.68.584v4.659a42.44 42.44 0 0 0 2.68-.583v-4.66zm-3.05.655a93.05 93.05 0 0 1-3.021.529v4.542a51.615 51.615 0 0 0 3.022-.426v-4.645zm-3.388.585a98.276 98.276 0 0 1-3.398.458v4.337a59.187 59.187 0 0 0 3.398-.268v-4.527zm-3.767.501c-1.241.144-2.512.269-3.811.373v3.967c.372.005.757.029 1.125.029a64.61 64.61 0 0 0 2.686-.052v-4.317zm-4.18.403c-1.398.11-2.828.195-4.28.258v3.446c1.452.12 2.879.193 4.28.223v-3.927zm-4.65.273c-1.57.064-3.171.1-4.795.108v2.745c1.624.244 3.218.415 4.796.552v-3.405zm-5.165.111c-1.643 0-3.252-.04-4.84-.099v1.884c.494.108.989.214 1.49.312 1.125.223 2.24.41 3.35.581v-2.678zm-5.21-.117a122.82 122.82 0 0 1-4.313-.253v.987c1.408.396 2.843.765 4.314 1.09v-1.824zm-4.681-.283a109.6 109.6 0 0 1-3.847-.37v.068c1.25.432 2.532.837 3.847 1.215v-.913zm-5.637-.947c.461.062.95.106 1.422.163v-6.441c-1.17-.125-2.319-.263-3.43-.415v5.9c.658.271 1.326.537 2.008.793m-2.376-6.744a96.894 96.894 0 0 1-3.044-.486v4.91c.983.476 1.998.934 3.044 1.372v-5.796zm-3.412-.554a86.24 86.24 0 0 1-2.707-.528v3.91c.87.486 1.773.96 2.707 1.42v-4.802zm-3.078-.61a68.766 68.766 0 0 1-2.402-.582v2.906a48.7 48.7 0 0 0 2.402 1.46v-3.783zm-2.77-.68a51.275 51.275 0 0 1-2.117-.614v1.893a44.94 44.94 0 0 0 2.117 1.492v-2.771zm-2.485-.726a39.002 39.002 0 0 1-1.874-.66v.871a38.938 38.938 0 0 0 1.874 1.515v-1.726zm-2.242-.807a32.498 32.498 0 0 1-1.342-.567c.424.422.874.842 1.342 1.258v-.691zm-2.018-1.267v-6.207a18.341 18.341 0 0 1-1.447-.727v5.258c.44.56.923 1.12 1.447 1.676m-1.814-7.14c-.475-.28-.897-.57-1.268-.869v3.902a17.55 17.55 0 0 0 1.268 1.96v-4.992zm-1.635-1.188c-.488-.441-.856-.899-1.104-1.368v.554c-.002 1.4.383 2.861 1.104 4.34v-3.526zm-1.104-2.676h.004c-.016.735.367 1.473 1.1 2.19v-5.752c-.488-.398-.856-.814-1.104-1.248v4.81zm1.47 2.52c.362.307.784.608 1.269.905v-5.916a11.005 11.005 0 0 1-1.268-.781v5.793zm1.269-5.45v-6.174c-.474-.23-.897-.465-1.268-.71v6.066c.36.277.783.55 1.268.818m0-6.603v-6.024a11.266 11.266 0 0 1-1.268-.646v5.926c.36.252.783.5 1.268.744m4.185-5.015a54.93 54.93 0 0 0 4.256.936c.373.069.76.136 1.15.204l.684-1.607c-.129-.02-.269-.04-.395-.061-2.327-.42-4.337-.86-5.98-1.33l.285 1.858zm17.741 2.56c3.826.272 7.94.436 12.238.468l.83-1.64c-4.87-.019-9.507-.213-13.732-.547l.664 1.719zm51.227 11.426v2.743c.724-.716 1.107-1.45 1.09-2.181v-.374c-.37-.062-.733-.125-1.09-.188m-40.954 27.29c5.147 1.016 10.159 1.498 14.83 1.498 14.913.009 26.321-4.93 27.839-12.858.114-.612.172-1.23.172-1.854 0-.98-.147-1.969-.428-2.96l-.001 2.962a9.12 9.12 0 0 1-.164 1.748c-.725 3.73-3.868 6.828-8.691 9.02-4.81 2.185-11.323 3.41-18.707 3.41-.018 0-.025-.004-.033-.004-4.616 0-9.598-.476-14.715-1.491-10.082-1.99-18.892-5.704-25.14-10.134-6.243-4.419-10.258-9.52-10.268-14.203l.001-.06v-1.484a9.894 9.894 0 0 0-.126 1.5c-.035 9.94 15.122 20.908 35.43 24.91m-34.937-32.753h.004c-.02.658.365 1.326 1.1 1.978v-6.03c-.486-.364-.856-.745-1.104-1.143v5.195zm0-6.308h.003c-.024.591.362 1.194 1.1 1.788v-5.899c-.485-.334-.855-.68-1.103-1.047v5.158zm1.76-7.054v-1.16c-1.176.683-1.767 1.39-1.758 2.038-.037.703.662 1.435 1.962 2.142l.32-2.03c-.318-.316-.5-.645-.523-.99m.37-5.242v5.242c-.018.172.066.357.223.548l.793-5.03c-.44-.238-.784-.491-1.017-.76m2.203-4.397l-.778 4.932c.447.217.99.432 1.634.643l-.856-5.575zm8.292 7.536c-2.822-.433-5.185-.893-6.982-1.415l.933 6.094c1.65.498 3.708.973 6.105 1.37.155.026.325.05.481.076l2.449-5.737a115.06 115.06 0 0 1-2.986-.388m5.87-5.429l-2.35 5.502c1.47.165 3.015.318 4.653.45l-2.304-5.952zm20 6.992c-6.198 0-12.027-.226-17.141-.625l2.498 6.46c4.316.345 9.068.549 14.068.564l3.245-6.414c-.883.009-1.772.015-2.67.015m6.264-6.295l-2.988 5.902a245.29 245.29 0 0 0 6.052-.152l-3.064-5.75zM557.47 397c-2.442.197-5.056.355-7.8.467l3.276 6.144c1.561-.111 3.075-.24 4.524-.385V397zm71.728 9.773c-7.595 1.281-18.075 2.072-29.652 2.072-11.577 0-22.056-.79-29.65-2.072-6.442-1.123-10.814-2.469-12.056-4.215v.836c-.021.338.16.687.514 1.038l.002-.003.035.036c1.423 1.372 5.57 2.769 11.567 3.75 7.564 1.277 18.03 2.07 29.588 2.07 11.56 0 22.025-.793 29.592-2.07 7.577-1.24 12.22-3.146 12.116-4.821v-.84c-1.235 1.748-5.61 3.094-12.056 4.219m12.426-10.777l-.002 5.592v1.643c2.848.359 5.964.66 9.273.895l3.845-7.221c-4.757-.194-9.186-.502-13.116-.91m17.336-6.226l-3.62 6.791c2.316.09 4.703.155 7.154.186l-3.534-6.977zm7.302 7.372c-1.065 0-2.118-.006-3.163-.019l3.817 7.537A216.057 216.057 0 0 0 683.34 404l2.936-7.588c-5.97.465-12.779.728-20.013.728m23.298-8.2l-2.73 7.056a169.72 169.72 0 0 0 5.515-.532l-2.785-6.524zm6.837 6.378c-1.11.163-2.291.316-3.516.458l2.874 6.746c.194-.033.395-.064.585-.098 2.803-.467 5.206-1.019 7.134-1.601l1.097-7.167c-2.095.616-4.865 1.16-8.174 1.662m9.66-8.945l-1.03 6.738a15.549 15.549 0 0 0 1.972-.774l-.942-5.964zm2.601 5.24c-.272.334-.698.648-1.253.946l.94 5.944c.215-.245.33-.482.313-.707v-6.182zm2.475 7.207c.008-.78-.703-1.62-2.107-2.423v1.399c-.023.397-.236.778-.612 1.144l.383 2.424c1.53-.827 2.359-1.69 2.334-2.526v-.016h.002v-.002zm-.002 1.092c-.283.45-.734.88-1.338 1.292v6.962c.897-.708 1.363-1.432 1.338-2.148v-6.106zm0 7.303c-.285.491-.734.96-1.338 1.413v7.11c.894-.779 1.359-1.578 1.338-2.374v-6.149zm-1.338 9.002v6.797c.89-.857 1.356-1.74 1.338-2.626v-5.715c-.285.535-.734 1.05-1.338 1.544m1.71 4.117c0-.004-.003-.005-.003-.008v2.231c-.01 5.44-4.68 11.376-11.944 16.52-7.271 5.16-17.534 9.484-29.285 11.804-5.958 1.18-11.75 1.737-17.15 1.737h-.011c-8.605 0-16.2-1.422-21.79-3.967-5.617-2.548-9.266-6.151-10.108-10.486a10.42 10.42 0 0 1-.195-2.032v-3.653c-.365 1.225-.56 2.447-.56 3.656 0 .726.07 1.448.207 2.162 1.772 9.261 15.08 15.014 32.46 15.007 5.44 0 11.281-.564 17.281-1.75 23.67-4.665 41.338-17.44 41.303-29.054 0-.727-.068-1.448-.205-2.167"/><path d="M483.55 368.83v-1.557l.007-.896c0-.56.006-.968.019-1.227.613-.046 1.27-.07 1.972-.07.47 0 .865.022 1.184.064.206.026.425.08.656.165.105.373.212.84.321 1.398h.422c-.113-.927-.17-1.546-.17-1.855l.013-.286c-.483-.047-.958-.07-1.424-.07l-.99.019c-1.092.03-1.894.044-2.406.044-.492 0-1.145-.014-1.96-.044v.4h.195c.366 0 .596.036.69.108.095.072.158.242.19.509.03.267.047.855.047 1.766v3.489c0 .572-.014 1.04-.041 1.404-.028.365-.057.582-.089.652a.367.367 0 0 1-.135.162c-.059.038-.24.072-.542.101l-.485.051v.394h.68l.668-.019c.374-.013.658-.02.85-.02l2.42.033 1.147.006c.39.004.786-.013 1.185-.05-.16-.5-.248-1.15-.265-1.952h-.428c0 .466-.023.854-.07 1.163-.495.187-1.104.28-1.827.28a22.52 22.52 0 0 1-1.808-.076c.004-.399 0-.797-.013-1.195l-.012-.979v-1.29a18.62 18.62 0 0 1 1.102-.038c1 0 1.566.035 1.698.105.133.07.199.287.199.651v.414h.428c-.03-.64-.044-1.15-.044-1.532 0-.402.015-.877.044-1.423h-.428v.368c0 .407-.079.656-.237.747-.157.091-.713.137-1.666.137-.353 0-.718-.017-1.096-.051zm5.27 4.327v.4a59.78 59.78 0 0 1 1.878-.044c.411 0 1.016.015 1.814.044v-.4h-.46c-.394 0-.632-.076-.712-.229-.08-.152-.12-.843-.12-2.071v-2.491c0-.911.05-1.544.149-1.9.098-.356.354-.657.765-.903.412-.245.962-.368 1.651-.368.71 0 1.309.131 1.796.394.336.182.582.465.737.848.155.384.233 1.111.233 2.183v2.396c0 1.11-.05 1.744-.148 1.903-.099.159-.37.238-.816.238h-.327v.4c.869-.03 1.421-.044 1.657-.044.382 0 .857.015 1.424.044v-.4h-.429c-.332 0-.545-.09-.64-.27-.094-.18-.141-.812-.141-1.897v-2.383c0-1.088-.054-1.822-.16-2.202a2.486 2.486 0 0 0-.587-1.026c-.283-.305-.661-.546-1.134-.724-.473-.178-1.028-.267-1.667-.267-.659 0-1.237.08-1.732.238-.496.16-.869.355-1.119.588a2.01 2.01 0 0 0-.541.855c-.112.336-.167.91-.167 1.719l.012 1.207v1.938c0 1.195-.035 1.864-.104 2.008-.07.144-.29.216-.665.216h-.447zm14.765-4.054a50.63 50.63 0 0 1 1.531-2.084l1.21-1.583c.214-.27.357-.425.428-.463a.463.463 0 0 1 .22-.058h.165v-.4c-.349.03-.654.044-.914.044-.24 0-.491-.014-.756-.044l-2.23 3.037c-.416.56-.862 1.106-1.336 1.64l.063.216a7.01 7.01 0 0 1 .542-.032c.701 0 1.25.182 1.647.547.397.364.596.851.596 1.461 0 .547-.168.973-.504 1.28-.336.308-.822.461-1.456.461a3.8 3.8 0 0 1-1.33-.248 29.027 29.027 0 0 1-.075-2.16v-3.07c0-1.495.036-2.324.107-2.487.072-.163.303-.245.693-.245h.492v-.4c-.698.03-1.275.044-1.733.044-.361 0-1.014-.014-1.96-.044v.4h.473c.361 0 .575.08.643.239.067.158.1.994.1 2.506v3.057c0 1.313-.038 2.048-.116 2.205-.078.157-.33.235-.76.235h-.34v.407a44.55 44.55 0 0 1 1.79-.051c.277 0 .676.01 1.197.032.605.02 1.04.031 1.304.031.727 0 1.278-.077 1.654-.231.376-.155.662-.379.857-.67.195-.293.293-.643.293-1.05 0-.597-.213-1.124-.64-1.582-.426-.457-1.044-.77-1.855-.94zm3.945-.064c0 1.394.445 2.517 1.335 3.368.891.852 2.078 1.277 3.56 1.278 1.454 0 2.593-.396 3.419-1.186.825-.79 1.238-1.84 1.238-3.148 0-1.41-.48-2.59-1.437-3.54-.958-.949-2.165-1.423-3.623-1.423-.911 0-1.697.186-2.356.56-.66.372-1.18.916-1.563 1.632-.382.716-.573 1.536-.573 2.46zm1.279.521c0-.957.163-1.79.488-2.5.326-.71.761-1.241 1.307-1.595.547-.354 1.17-.53 1.872-.53.65 0 1.22.15 1.707.45.488.301.87.75 1.15 1.348.28.597.42 1.324.42 2.18 0 .897-.155 1.665-.464 2.303-.309.637-.732 1.117-1.27 1.44-.537.321-1.174.482-1.909.482-.672 0-1.251-.142-1.739-.426-.487-.284-.87-.7-1.146-1.248-.278-.549-.416-1.183-.416-1.904zm11.371 3.305c-.03-.61-.044-1.26-.044-1.951v-3.628c0-1.276.038-1.99.113-2.142.076-.152.324-.229.744-.229h.435v-.4c-.744.03-1.33.044-1.758.044-.378 0-1.048-.014-2.01-.044v.4h.567c.264 0 .434.033.51.099.076.065.124.199.145.4.021.201.044.817.07 1.846v3.393l-.02 1.316c-.008.546-.066.88-.173 1.004-.107.123-.368.184-.784.184h-.315v.4c.525-.02 1.19-.031 1.997-.031.475 0 1.002.012 1.581.038.383.017.673.025.87.025 1.017 0 1.756-.186 2.218-.559.458-.373.687-.877.687-1.512 0-.462-.133-.906-.397-1.332a2.888 2.888 0 0 0-1.125-1.026 3.255 3.255 0 0 0-1.553-.388c-.252 0-.567.04-.945.121l-.126.483c.37-.097.678-.146.926-.146.58 0 1.04.177 1.38.53.34.354.51.838.51 1.453 0 .593-.181 1.056-.545 1.388-.363.333-.904.499-1.622.499-.408 0-.853-.078-1.336-.235zm7.85-4.035v-1.557l.007-.896c0-.56.006-.968.019-1.227.613-.046 1.27-.07 1.972-.07.47 0 .865.022 1.185.064.205.026.424.08.655.165.105.373.212.84.321 1.398h.422c-.113-.927-.17-1.546-.17-1.855l.013-.286c-.483-.047-.958-.07-1.424-.07l-.99.019c-1.091.03-1.894.044-2.406.044-.492 0-1.145-.014-1.96-.044v.4h.196c.365 0 .595.036.69.108.094.072.157.242.189.509.031.267.047.855.047 1.766v3.489c0 .572-.014 1.04-.041 1.404-.027.365-.057.582-.088.652a.367.367 0 0 1-.136.162c-.059.038-.24.072-.542.101l-.485.051v.394h.68l.668-.019c.374-.013.658-.02.851-.02l2.42.033 1.146.006c.391.004.786-.013 1.185-.05-.16-.5-.248-1.15-.265-1.952h-.428c0 .466-.023.854-.07 1.163-.495.187-1.104.28-1.827.28a22.52 22.52 0 0 1-1.808-.076c.004-.399 0-.797-.013-1.195l-.012-.979v-1.29c.416-.025.783-.038 1.102-.038 1 0 1.566.035 1.698.105.133.07.199.287.199.651v.414h.428c-.029-.64-.044-1.15-.044-1.532 0-.402.015-.877.044-1.423h-.428v.368c0 .407-.079.656-.236.747-.158.091-.713.137-1.667.137-.353 0-.718-.017-1.096-.051zm11.634-1.265h-3.642l-.428-1.023c-.282-.678-.422-1.093-.422-1.245 0-.098.026-.168.078-.21.053-.042.186-.076.4-.102l.605-.07v-.4a25.017 25.017 0 0 1-2.955 0v.4l.19.007c.293.008.483.039.57.092.086.053.177.183.274.39.298.61.602 1.27.913 1.977l1.733 3.959c.462 1.05.777 1.813.945 2.287h.428l3.189-7.479c.214-.508.357-.814.428-.918a.64.64 0 0 1 .246-.223c.092-.044.3-.075.624-.092v-.4c-.546.03-1.067.044-1.563.044-.462 0-1.077-.014-1.846-.044v.4l.624.038c.222.017.355.04.397.07a.213.213 0 0 1 .094.178c0 .077-.063.276-.189.598l-.693 1.766zm-3.409.521h3.176l-1.588 3.826-1.588-3.826zm8.918 4.035v-4.39c0-1 .019-1.697.057-2.091.03-.301.079-.484.148-.55.07-.066.27-.113.602-.143l.403-.032v-.4c-.458.03-.872.044-1.241.044-.257 0-.845-.014-1.765-.044v.4h.454c.273 0 .452.038.536.115.084.076.136.226.157.45.046.467.07 1.1.07 1.9v3.159c0 .593-.007 1.18-.02 1.76-.008.246-.04.414-.097.505a.813.813 0 0 1-.249.245c-.11.072-.263.108-.46.108h-.39v.4c.533-.03.94-.044 1.222-.044.302 0 .634.015.995.044a57.52 57.52 0 0 0 1.175-1.496 65.29 65.29 0 0 1 1.144-1.465l2.155-2.669c.777-.957 1.338-1.622 1.682-1.995v4.08c0 1.707-.03 2.64-.091 2.799-.061.159-.304.26-.728.302l-.473.044v.4c.677-.03 1.202-.044 1.576-.044.39 0 .894.015 1.512.044v-.4h-.485c-.391 0-.616-.131-.675-.394-.037-.174-.056-1.101-.056-2.783v-2.866c0-.771.033-1.692.1-2.764-.57.089-.903.153-.995.194a.782.782 0 0 0-.265.2c-.466.52-.955 1.1-1.468 1.735l-4.53 5.642zm19.973-.858l-.05 1.132c-.374.25-.766.436-1.176.559a4.44 4.44 0 0 1-1.282.184c-1.134 0-2.042-.347-2.725-1.042-.683-.695-1.024-1.625-1.024-2.79 0-.817.173-1.546.52-2.186a3.86 3.86 0 0 1 1.478-1.518 3.95 3.95 0 0 1 2.022-.56c.563 0 1.12.066 1.67.197.411.098.825.301 1.241.61l.132-.127c-.088-.195-.17-.392-.245-.59a7.28 7.28 0 0 0-1.484-.557 6.15 6.15 0 0 0-1.503-.187c-1.033 0-1.942.201-2.725.604-.783.402-1.385.958-1.805 1.668-.42.71-.63 1.51-.63 2.405 0 .894.212 1.693.636 2.399a4.28 4.28 0 0 0 1.799 1.64c.775.387 1.727.58 2.857.58.593 0 1.286-.097 2.08-.292.394-.093.716-.163.964-.21-.19-.453-.299-1.092-.328-1.919h-.422zm1.342-2.224c0 1.394.445 2.517 1.336 3.368.89.852 2.077 1.277 3.56 1.278 1.453 0 2.593-.396 3.418-1.186.825-.79 1.238-1.84 1.238-3.148 0-1.41-.479-2.59-1.436-3.54-.958-.949-2.166-1.423-3.623-1.423-.912 0-1.697.186-2.357.56-.66.372-1.18.916-1.562 1.632-.383.716-.574 1.536-.574 2.46zm1.28.521c0-.957.162-1.79.488-2.5.325-.71.76-1.241 1.307-1.595.546-.354 1.17-.53 1.871-.53.651 0 1.22.15 1.708.45.487.301.87.75 1.15 1.348.279.597.419 1.324.419 2.18 0 .897-.155 1.665-.463 2.303-.31.637-.732 1.117-1.27 1.44-.538.321-1.174.482-1.91.482-.671 0-1.25-.142-1.738-.426-.487-.284-.87-.7-1.147-1.248-.277-.549-.416-1.183-.416-1.904zm8.812 3.597v.4a59.78 59.78 0 0 1 1.878-.044c.412 0 1.016.015 1.815.044v-.4h-.46c-.395 0-.633-.076-.712-.229-.08-.152-.12-.843-.12-2.071v-2.491c0-.911.05-1.544.148-1.9.099-.356.354-.657.766-.903.411-.245.961-.368 1.65-.368.71 0 1.309.131 1.796.394.336.182.582.465.737.848.156.384.233 1.111.233 2.183v2.396c0 1.11-.049 1.744-.148 1.903-.098.159-.37.238-.816.238h-.327v.4a63.97 63.97 0 0 1 1.657-.044c.382 0 .857.015 1.424.044v-.4h-.429c-.331 0-.545-.09-.64-.27-.094-.18-.14-.812-.14-1.897v-2.383c0-1.088-.054-1.822-.162-2.202a2.486 2.486 0 0 0-.586-1.026c-.283-.305-.661-.546-1.134-.724-.472-.178-1.028-.267-1.666-.267-.66 0-1.237.08-1.733.238-.496.16-.868.355-1.118.588a2.01 2.01 0 0 0-.542.855c-.112.336-.167.91-.167 1.719l.012 1.207v1.938c0 1.195-.034 1.864-.104 2.008-.069.144-.29.216-.664.216h-.448zm14.765-4.054c.412-.597.922-1.292 1.531-2.084l1.21-1.583c.214-.27.357-.425.429-.463a.463.463 0 0 1 .22-.058h.164v-.4c-.349.03-.653.044-.914.044-.24 0-.491-.014-.756-.044l-2.23 3.037c-.416.56-.861 1.106-1.336 1.64l.063.216c.244-.021.424-.032.542-.032.701 0 1.25.182 1.647.547.397.364.596.851.596 1.461 0 .547-.168.973-.504 1.28-.336.308-.821.461-1.456.461a3.8 3.8 0 0 1-1.33-.248 29.021 29.021 0 0 1-.075-2.16v-3.07c0-1.495.036-2.324.107-2.487.072-.163.303-.245.693-.245h.492v-.4c-.697.03-1.275.044-1.733.044-.361 0-1.014-.014-1.96-.044v.4h.473c.361 0 .576.08.643.239.067.158.1.994.1 2.506v3.057c0 1.313-.038 2.048-.116 2.205-.078.157-.33.235-.76.235h-.34v.407a44.55 44.55 0 0 1 1.79-.051c.277 0 .676.01 1.197.032.605.02 1.04.031 1.304.031.727 0 1.278-.077 1.654-.231.376-.155.662-.379.857-.67.196-.293.293-.643.293-1.05 0-.597-.213-1.124-.64-1.582-.426-.457-1.044-.77-1.855-.94zm8.274 3.876a27.724 27.724 0 0 1-.07-2.008v-3.622c0-1.347.034-2.09.101-2.227.067-.138.307-.207.718-.207h.473v-.4c-.744.03-1.374.044-1.89.044-.521 0-1.147-.014-1.878-.044v.4h.53c.277 0 .457.037.541.112.084.074.137.219.158.435.042.495.063 1.135.063 1.919v3.628c0 .716-.015 1.373-.044 1.97h-.643c-1.038 0-1.609-.024-1.714-.073-.105-.049-.174-.238-.208-.569l-.088-.851h-.397l.013.756c0 .305-.026.744-.076 1.315a526.28 526.28 0 0 1 4.001-.044l3.484.044a22.567 22.567 0 0 1-.138-2.071h-.39l-.064.832c-.025.288-.06.459-.107.512-.046.053-.15.086-.309.098-.462.034-.987.051-1.575.051h-.491zm6.807-3.94c0 1.394.445 2.517 1.336 3.368.89.852 2.077 1.277 3.56 1.278 1.453 0 2.593-.396 3.418-1.186.825-.79 1.238-1.84 1.238-3.148 0-1.41-.479-2.59-1.437-3.54-.957-.949-2.165-1.423-3.623-1.423-.911 0-1.697.186-2.356.56-.66.372-1.18.916-1.563 1.632-.382.716-.573 1.536-.573 2.46zm1.28.521c0-.957.162-1.79.487-2.5.326-.71.762-1.241 1.308-1.595.546-.354 1.17-.53 1.871-.53.651 0 1.22.15 1.708.45.487.301.87.75 1.15 1.348.279.597.419 1.324.419 2.18 0 .897-.155 1.665-.464 2.303-.308.637-.731 1.117-1.27 1.44-.537.321-1.173.482-1.908.482-.672 0-1.252-.142-1.74-.426-.487-.284-.869-.7-1.146-1.248-.277-.549-.416-1.183-.416-1.904zm11.276-.724v-2.186c0-.868.046-1.376.138-1.522.093-.146.328-.219.706-.219h.447v-.394c-.798.03-1.434.044-1.909.044a48.7 48.7 0 0 1-1.858-.044v.394h.504c.36 0 .582.07.664.21.082.14.123.65.123 1.531v4.798c0 .86-.045 1.36-.135 1.5-.09.14-.325.21-.703.21h-.453v.4c.697-.03 1.325-.045 1.884-.045l3.622.07c.379 0 .736-.02 1.072-.057-.135-.454-.208-1.095-.22-1.926h-.404a7.7 7.7 0 0 1-.151 1.182 6.787 6.787 0 0 1-1.746.229 13.52 13.52 0 0 1-1.506-.083c-.05-.55-.075-1.05-.075-1.5v-2.02c.252-.013.5-.02.743-.02.63 0 1.183.018 1.657.052.16.008.268.043.325.105.057.061.104.225.142.492l.063.483h.397a41.053 41.053 0 0 1-.057-1.493l.006-1.5h-.41v.49c0 .389-.073.626-.22.711-.147.085-.71.127-1.688.127-.27 0-.589-.006-.958-.019zm10.45.165v-1.773c0-.305.011-.663.032-1.074.026-.576.047-.894.063-.956.017-.061.078-.124.183-.187.105-.064.275-.096.51-.096h.429v-.4a29.2 29.2 0 0 1-1.582.044c-.491 0-1.195-.014-2.11-.044v.4h.39c.441 0 .702.076.782.226.08.15.12.84.12 2.068v3.832c0 1.11-.042 1.74-.124 1.89-.081.15-.316.226-.702.226h-.466v.4c.693-.03 1.338-.044 1.934-.044.6 0 1.187.015 1.758.044v-.4h-.271c-.39 0-.632-.032-.725-.095-.092-.064-.149-.168-.17-.312-.033-.233-.05-.798-.05-1.696v-1.45c.748-.033 1.699-.05 2.854-.05.979 0 1.775.017 2.388.05v1.24c0 .724-.025 1.332-.075 1.824-.017.173-.074.298-.17.375-.097.076-.295.114-.593.114h-.454v.4a39.7 39.7 0 0 1 3.768 0v-.4h-.479c-.323 0-.53-.036-.62-.108-.09-.072-.145-.204-.164-.397-.019-.193-.028-.8-.028-1.82v-3.515c0-1.3.036-2.026.11-2.176.073-.15.303-.226.69-.226h.491v-.4a40.72 40.72 0 0 1-3.768 0v.4h.435c.32 0 .525.037.618.112.092.074.149.212.17.416.046.436.07 1.072.07 1.906v1.652a41.1 41.1 0 0 1-2.27.051c-1.31 0-2.301-.017-2.973-.05zm8.223 4.156v.4a59.78 59.78 0 0 1 1.878-.044c.411 0 1.016.015 1.814.044v-.4h-.46c-.395 0-.632-.076-.712-.229-.08-.152-.12-.843-.12-2.071v-2.491c0-.911.05-1.544.149-1.9.098-.356.354-.657.765-.903.412-.245.962-.368 1.651-.368.71 0 1.308.131 1.796.394.336.182.581.465.737.848.155.384.233 1.111.233 2.183v2.396c0 1.11-.05 1.744-.148 1.903-.099.159-.37.238-.816.238h-.328v.4a63.97 63.97 0 0 1 1.657-.044c.383 0 .857.015 1.424.044v-.4h-.428c-.332 0-.545-.09-.64-.27-.094-.18-.141-.812-.141-1.897v-2.383c0-1.088-.054-1.822-.161-2.202a2.486 2.486 0 0 0-.586-1.026c-.283-.305-.662-.546-1.134-.724-.473-.178-1.028-.267-1.667-.267-.66 0-1.237.08-1.732.238-.496.16-.869.355-1.119.588a2.01 2.01 0 0 0-.542.855c-.11.336-.167.91-.167 1.719l.013 1.207v1.938c0 1.195-.035 1.864-.104 2.008-.07.144-.29.216-.665.216h-.447zm19.327-.972l-1.872-3.927a76.042 76.042 0 0 1-1.726-3.864h-.252c-.155.377-.6 1.345-1.336 2.904l-2.255 4.709v-4.912c0-1.144.045-1.793.135-1.948.09-.154.37-.232.841-.232h.233v-.4c-.584.03-1.058.044-1.424.044-.264 0-.792-.014-1.581-.044v.4h.41c.277 0 .461.04.554.121.092.08.149.227.17.439.055.593.082 1.232.082 1.919v3.596c0 .869-.02 1.443-.057 1.722a.449.449 0 0 1-.186.33c-.107.077-.32.115-.64.115h-.333v.4c.73-.03 1.19-.044 1.38-.044.24 0 .58.015 1.02.044.509-1.14 1.095-2.395 1.758-3.768l1.657-3.438 1.532 3.184a127.03 127.03 0 0 1 1.84 4.022c.524-.03.894-.044 1.108-.044.248 0 .695.015 1.342.044v-.4h-.41c-.369 0-.595-.065-.677-.194-.081-.129-.122-.594-.122-1.395v-4.645c0-1.033.043-1.626.129-1.779.086-.152.326-.229.721-.229h.36v-.4a33.1 33.1 0 0 1-1.677.044 40.12 40.12 0 0 1-1.846-.044v.4h.416c.332 0 .532.073.602.22.07.146.104.774.104 1.884v5.166zm9.283-4.62h-3.642l-.428-1.023c-.281-.678-.422-1.093-.422-1.245 0-.098.026-.168.079-.21.052-.042.185-.076.4-.102l.605-.07v-.4a25.017 25.017 0 0 1-2.955 0v.4l.189.007c.294.008.484.039.57.092.086.053.177.183.274.39.298.61.603 1.27.913 1.977l1.733 3.959c.462 1.05.777 1.813.945 2.287h.429l3.188-7.479c.214-.508.357-.814.428-.918a.64.64 0 0 1 .246-.223c.093-.044.3-.075.624-.092v-.4c-.546.03-1.067.044-1.563.044-.462 0-1.077-.014-1.846-.044v.4l.624.038c.223.017.355.04.397.07a.213.213 0 0 1 .094.178c0 .077-.063.276-.189.598l-.693 1.766zm-3.408.521h3.175l-1.588 3.826-1.587-3.826zm8.917 4.035v-4.39c0-1 .02-1.697.057-2.091.03-.301.079-.484.148-.55.07-.066.27-.113.602-.143l.403-.032v-.4c-.458.03-.872.044-1.241.044a71.1 71.1 0 0 1-1.764-.044v.4h.453c.273 0 .452.038.536.115.084.076.136.226.157.45.047.467.07 1.1.07 1.9v3.159c0 .593-.007 1.18-.02 1.76-.008.246-.04.414-.097.505a.813.813 0 0 1-.249.245c-.109.072-.262.108-.46.108h-.39v.4c.533-.03.94-.044 1.222-.044.302 0 .634.015.995.044a57.52 57.52 0 0 0 1.176-1.496 65.32 65.32 0 0 1 1.143-1.465l2.155-2.669c.777-.957 1.338-1.622 1.682-1.995v4.08c0 1.707-.03 2.64-.091 2.799-.06.159-.303.26-.728.302l-.472.044v.4c.676-.03 1.201-.044 1.575-.044.39 0 .895.015 1.512.044v-.4h-.485c-.39 0-.615-.131-.674-.394-.038-.174-.057-1.101-.057-2.783v-2.866c0-.771.034-1.692.1-2.764-.57.089-.902.153-.995.194a.782.782 0 0 0-.264.2c-.467.52-.956 1.1-1.468 1.735l-4.53 5.642zm16.842-3.018a50.63 50.63 0 0 1 1.53-2.084l1.21-1.583c.215-.27.358-.425.429-.463a.463.463 0 0 1 .22-.058h.164v-.4c-.348.03-.653.044-.913.044-.24 0-.492-.014-.756-.044l-2.23 3.037c-.417.56-.862 1.106-1.337 1.64l.063.216c.244-.021.425-.032.542-.032.702 0 1.25.182 1.648.547.397.364.595.851.595 1.461 0 .547-.168.973-.504 1.28-.336.308-.821.461-1.455.461a3.8 3.8 0 0 1-1.33-.248 29.027 29.027 0 0 1-.075-2.16v-3.07c0-1.495.035-2.324.107-2.487.071-.163.302-.245.693-.245h.491v-.4c-.697.03-1.275.044-1.732.044-.362 0-1.015-.014-1.96-.044v.4h.473c.36 0 .575.08.642.239.068.158.101.994.101 2.506v3.057c0 1.313-.039 2.048-.116 2.205-.078.157-.331.235-.76.235h-.34v.407a44.55 44.55 0 0 1 1.79-.051c.277 0 .676.01 1.197.032.605.02 1.04.031 1.304.031.727 0 1.278-.077 1.654-.231.376-.155.661-.379.857-.67.195-.293.293-.643.293-1.05 0-.597-.213-1.124-.64-1.582-.426-.457-1.045-.77-1.855-.94zm4.033-4.188h.396c.391 0 .625.096.703.286.078.19.117 1.104.117 2.74v2.153c0 1.695-.034 2.629-.101 2.803-.067.173-.27.26-.605.26h-.51v.4c.697-.03 1.386-.044 2.066-.044.567 0 1.082.015 1.544.044v-.4h-.485c-.299 0-.485-.036-.561-.108-.076-.072-.12-.254-.132-.546a61.6 61.6 0 0 1-.032-2.421v-2.193c0-1.648.036-2.555.107-2.723.072-.167.3-.25.687-.25h.416v-.401a37.398 37.398 0 0 1-3.61 0v.4zm12.98 2.606a6.218 6.218 0 0 1-.094-1.087c0-.39.031-.828.094-1.315-.558-.22-1.19-.397-1.893-.53a10.806 10.806 0 0 0-2.02-.201c-.99 0-1.861.196-2.611.588a4.189 4.189 0 0 0-1.73 1.633c-.403.697-.605 1.488-.605 2.373 0 .915.217 1.73.65 2.443a4.425 4.425 0 0 0 1.808 1.665c.773.396 1.751.594 2.936.595a8.64 8.64 0 0 0 1.336-.096c.407-.063.938-.19 1.594-.381l.535-.146c-.113-.45-.203-1.076-.27-1.881h-.391v.42c0 .414-.034.658-.101.73-.126.136-.46.304-1.002.505s-1.161.302-1.859.302c-1.235 0-2.18-.335-2.835-1.004-.714-.729-1.071-1.692-1.071-2.891 0-1.153.321-2.123.964-2.91.756-.933 1.787-1.399 3.094-1.399.68 0 1.417.15 2.211.452.025.355.038.735.038 1.137 0 .521-.008.82-.025.9-.017.078-.047.128-.092.152-.044.023-.263.052-.658.085l-.744.064v.407a53.696 53.696 0 0 1 2.143-.064c.403 0 .75.021 1.04.064v-.318l-.442-.292zm3.59 1.48v-1.773c0-.305.01-.663.03-1.074.026-.576.047-.894.064-.956.017-.061.078-.124.183-.187.105-.064.275-.096.51-.096h.428v-.4a29.2 29.2 0 0 1-1.581.044c-.491 0-1.195-.014-2.11-.044v.4h.39c.44 0 .701.076.781.226.08.15.12.84.12 2.068v3.832c0 1.11-.041 1.74-.123 1.89-.082.15-.316.226-.703.226h-.466v.4c.693-.03 1.338-.044 1.935-.044.6 0 1.186.015 1.757.044v-.4h-.27c-.391 0-.633-.032-.725-.095-.092-.064-.15-.168-.17-.312-.034-.233-.05-.798-.05-1.696v-1.45c.747-.033 1.699-.05 2.854-.05.978 0 1.774.017 2.388.05v1.24c0 .724-.026 1.332-.076 1.824-.017.173-.073.298-.17.375-.097.076-.294.114-.592.114h-.454v.4a39.7 39.7 0 0 1 3.768 0v-.4h-.479c-.323 0-.53-.036-.62-.108-.09-.072-.146-.204-.164-.397-.02-.193-.029-.8-.029-1.82v-3.515c0-1.3.037-2.026.11-2.176.074-.15.304-.226.69-.226h.492v-.4a40.72 40.72 0 0 1-3.768 0v.4h.435c.319 0 .525.037.617.112.093.074.15.212.17.416.047.436.07 1.072.07 1.906v1.652a41.06 41.06 0 0 1-2.269.051 65.75 65.75 0 0 1-2.974-.05zm12.6 3.978a27.73 27.73 0 0 1-.069-2.008v-3.622c0-1.347.034-2.09.101-2.227.067-.138.307-.207.718-.207h.473v-.4c-.744.03-1.374.044-1.89.044-.521 0-1.147-.014-1.878-.044v.4h.53c.277 0 .457.037.541.112.084.074.137.219.158.435.042.495.063 1.135.063 1.919v3.628c0 .716-.015 1.373-.044 1.97h-.643c-1.038 0-1.609-.024-1.714-.073-.105-.049-.174-.238-.208-.569l-.088-.851h-.397l.013.756c0 .305-.026.744-.076 1.315 2.268-.03 3.602-.044 4.001-.044l3.484.044a22.567 22.567 0 0 1-.138-2.071h-.39l-.064.832c-.025.288-.06.459-.107.512-.046.053-.15.086-.309.098-.462.034-.987.051-1.575.051h-.491zm9.335.153c-.118-.44-.18-1.026-.19-1.754h-.434v.508c0 .33-.044.555-.132.674-.089.118-.319.244-.69.378-.372.133-.764.2-1.175.2-.673 0-1.2-.172-1.585-.515-.384-.343-.577-.783-.577-1.321 0-.34.08-.63.237-.874.157-.244.37-.42.636-.528.267-.108.833-.202 1.698-.282.865-.085 1.45-.197 1.755-.337.304-.14.548-.364.73-.674.184-.309.275-.675.275-1.099 0-.852-.353-1.584-1.059-2.199-.705-.614-1.646-.921-2.822-.921-.404 0-.81.041-1.22.124-.41.082-.822.204-1.238.365.076.509.112 1.161.107 1.957h.429v-.317c0-.411.02-.665.063-.763.042-.097.14-.201.296-.311a2.56 2.56 0 0 1 .825-.378c.32-.087.664-.13 1.034-.13.794 0 1.407.188 1.84.565.432.377.649.856.649 1.436 0 .339-.074.626-.221.861-.147.235-.353.41-.617.524-.265.115-.754.202-1.469.26-.949.077-1.594.191-1.934.344-.34.153-.607.393-.8.721-.193.329-.29.736-.29 1.223 0 .827.296 1.502.888 2.028.593.525 1.412.787 2.458.788.42 0 .84-.046 1.263-.137.422-.091.845-.23 1.27-.416zM465.54 349.738l-.05 1.131a4.37 4.37 0 0 1-1.176.56 4.44 4.44 0 0 1-1.282.184c-1.134 0-2.042-.347-2.725-1.042-.683-.695-1.024-1.625-1.024-2.79 0-.817.173-1.546.52-2.186a3.86 3.86 0 0 1 1.477-1.518 3.95 3.95 0 0 1 2.023-.56c.563 0 1.12.066 1.67.197.411.098.825.301 1.241.61l.132-.127c-.088-.195-.17-.392-.245-.59a7.28 7.28 0 0 0-1.484-.557 6.15 6.15 0 0 0-1.503-.187c-1.033 0-1.942.201-2.725.604-.783.402-1.385.958-1.805 1.668-.42.71-.63 1.51-.63 2.405 0 .894.212 1.693.636 2.399a4.28 4.28 0 0 0 1.799 1.639c.775.388 1.727.581 2.857.581.593 0 1.286-.097 2.08-.292.394-.093.716-.163.964-.21-.19-.453-.299-1.093-.328-1.919h-.422zm1.342-2.224c0 1.394.445 2.517 1.336 3.368.89.852 2.077 1.277 3.56 1.277 1.453 0 2.593-.395 3.418-1.185.825-.79 1.238-1.84 1.238-3.148 0-1.411-.479-2.59-1.437-3.54-.957-.949-2.165-1.423-3.622-1.423-.912 0-1.697.186-2.357.559-.66.373-1.18.917-1.563 1.633-.382.716-.573 1.536-.573 2.46zm1.28.521c0-.957.162-1.79.487-2.5.326-.71.762-1.241 1.308-1.595.546-.354 1.17-.53 1.871-.53.651 0 1.22.15 1.708.45.487.301.87.75 1.15 1.348.279.597.419 1.323.419 2.18 0 .897-.155 1.665-.464 2.303-.308.637-.731 1.117-1.27 1.439-.537.322-1.173.483-1.908.483-.672 0-1.252-.142-1.74-.426-.487-.284-.869-.7-1.146-1.248-.277-.55-.416-1.183-.416-1.904zm8.812 3.597v.4a59.78 59.78 0 0 1 1.878-.044c.412 0 1.016.015 1.814.044v-.4h-.46c-.394 0-.632-.076-.711-.229-.08-.152-.12-.843-.12-2.071v-2.491c0-.911.05-1.544.148-1.9.099-.356.354-.657.765-.903.412-.245.962-.368 1.651-.368.71 0 1.309.131 1.796.394.336.182.582.465.737.848.156.384.233 1.111.233 2.183v2.396c0 1.11-.05 1.744-.148 1.903-.098.159-.37.238-.816.238h-.327v.4a63.97 63.97 0 0 1 1.657-.044c.382 0 .857.015 1.424.044v-.4h-.429c-.332 0-.545-.09-.64-.27-.094-.18-.141-.812-.141-1.897v-2.383c0-1.089-.054-1.822-.16-2.202a2.486 2.486 0 0 0-.587-1.026c-.283-.305-.661-.546-1.134-.724-.472-.178-1.028-.267-1.666-.267-.66 0-1.237.08-1.733.238-.496.159-.869.355-1.118.588a2.01 2.01 0 0 0-.542.855c-.112.336-.167.91-.167 1.718l.012 1.208v1.938c0 1.195-.034 1.864-.104 2.008-.069.144-.29.216-.664.216h-.448zm14.765-4.054c.412-.597.922-1.292 1.531-2.084l1.21-1.583c.214-.27.357-.425.428-.464a.463.463 0 0 1 .22-.057h.165v-.4c-.349.03-.653.044-.914.044-.24 0-.491-.014-.756-.044l-2.23 3.037c-.416.56-.862 1.106-1.336 1.64l.063.216a7.01 7.01 0 0 1 .542-.032c.701 0 1.25.182 1.647.547.397.364.596.851.596 1.461 0 .547-.168.973-.504 1.28-.336.308-.822.461-1.456.461a3.8 3.8 0 0 1-1.33-.248 29.021 29.021 0 0 1-.075-2.16v-3.07c0-1.495.036-2.324.107-2.487.072-.163.303-.245.693-.245h.492v-.4c-.697.03-1.275.044-1.733.044-.361 0-1.014-.014-1.96-.044v.4h.473c.361 0 .576.08.643.239.067.158.1.994.1 2.506v3.057c0 1.313-.038 2.048-.116 2.205-.078.157-.33.235-.76.235h-.34v.407a44.55 44.55 0 0 1 1.79-.051c.277 0 .676.01 1.197.032.605.02 1.04.031 1.304.031.727 0 1.278-.077 1.654-.232.376-.154.662-.378.857-.67.196-.292.293-.642.293-1.048 0-.598-.213-1.125-.64-1.583-.426-.457-1.044-.77-1.855-.94zm9.735-.273v-1.557l.007-.896c0-.56.006-.968.018-1.227.614-.046 1.271-.07 1.973-.07.47 0 .865.022 1.184.064.206.025.424.08.655.165.105.373.213.839.322 1.398h.422c-.114-.928-.17-1.546-.17-1.855l.012-.286c-.483-.047-.957-.07-1.424-.07l-.989.019c-1.092.03-1.894.044-2.407.044-.491 0-1.144-.014-1.96-.044v.4h.196c.365 0 .595.036.69.108.094.072.158.242.189.509.032.267.047.855.047 1.766v3.489c0 .572-.013 1.04-.04 1.404-.028.364-.057.582-.089.651a.367.367 0 0 1-.135.163c-.06.038-.24.072-.542.101l-.485.051v.394h.68l.668-.02c.374-.012.657-.018.85-.018l2.42.032 1.147.006c.39.004.785-.013 1.184-.05-.16-.5-.247-1.151-.264-1.952h-.429c0 .466-.023.854-.069 1.163-.496.187-1.105.28-1.827.28a22.52 22.52 0 0 1-1.809-.076c.005-.399 0-.797-.012-1.195l-.013-.979v-1.29c.416-.025.784-.038 1.103-.038 1 0 1.566.035 1.698.105.132.07.198.287.198.651v.413h.429c-.03-.64-.044-1.15-.044-1.531 0-.402.014-.877.044-1.423h-.429v.368c0 .407-.078.656-.236.747-.157.09-.713.136-1.666.136-.353 0-.719-.016-1.097-.05zm5.27 4.327v.4c.86-.03 1.487-.044 1.877-.044.412 0 1.017.015 1.815.044v-.4h-.46c-.395 0-.632-.076-.712-.229-.08-.152-.12-.843-.12-2.071v-2.491c0-.911.05-1.544.148-1.9.1-.356.354-.657.766-.903.412-.245.962-.368 1.65-.368.71 0 1.31.131 1.796.394.337.182.582.465.738.848.155.384.233 1.111.233 2.183v2.396c0 1.11-.05 1.744-.148 1.903-.099.159-.371.238-.816.238h-.328v.4a63.97 63.97 0 0 1 1.657-.044c.382 0 .857.015 1.424.044v-.4h-.428c-.332 0-.545-.09-.64-.27-.094-.18-.142-.812-.142-1.897v-2.383c0-1.089-.053-1.822-.16-2.202a2.486 2.486 0 0 0-.586-1.026c-.284-.305-.662-.546-1.134-.724-.473-.178-1.028-.267-1.667-.267-.66 0-1.237.08-1.733.238-.495.159-.868.355-1.118.588a2.01 2.01 0 0 0-.542.855c-.111.336-.167.91-.167 1.718l.013 1.208v1.938c0 1.195-.035 1.864-.104 2.008-.07.144-.291.216-.665.216h-.447zm14.765-4.054c.411-.597.922-1.292 1.53-2.084l1.21-1.583c.215-.27.358-.425.429-.464a.463.463 0 0 1 .22-.057h.164v-.4c-.348.03-.653.044-.913.044-.24 0-.492-.014-.756-.044l-2.23 3.037c-.417.56-.862 1.106-1.337 1.64l.063.216c.244-.021.425-.032.542-.032.702 0 1.251.182 1.648.547.397.364.595.851.595 1.461 0 .547-.168.973-.504 1.28-.336.308-.82.461-1.455.461a3.8 3.8 0 0 1-1.33-.248 29.027 29.027 0 0 1-.075-2.16v-3.07c0-1.495.035-2.324.107-2.487.071-.163.302-.245.693-.245h.491v-.4c-.697.03-1.274.044-1.732.044-.362 0-1.015-.014-1.96-.044v.4h.473c.36 0 .575.08.642.239.068.158.101.994.101 2.506v3.057c0 1.313-.039 2.048-.116 2.205-.078.157-.331.235-.76.235h-.34v.407a44.442 44.442 0 0 1 1.79-.051c.277 0 .676.01 1.197.032.605.02 1.04.031 1.304.031.727 0 1.278-.077 1.654-.232.376-.154.661-.378.857-.67.195-.292.293-.642.293-1.048 0-.598-.213-1.125-.64-1.583-.426-.457-1.045-.77-1.855-.94zm3.944-.064c0 1.394.446 2.517 1.336 3.368.89.852 2.077 1.277 3.56 1.277 1.453 0 2.593-.395 3.418-1.185.826-.79 1.238-1.84 1.238-3.148 0-1.411-.479-2.59-1.436-3.54-.958-.949-2.166-1.423-3.623-1.423-.912 0-1.697.186-2.357.559-.66.373-1.18.917-1.562 1.633-.382.716-.574 1.536-.574 2.46zm1.28.521c0-.957.162-1.79.488-2.5.325-.71.761-1.241 1.307-1.595.546-.354 1.17-.53 1.871-.53.652 0 1.22.15 1.708.45.487.301.87.75 1.15 1.348.28.597.419 1.323.419 2.18 0 .897-.154 1.665-.463 2.303-.309.637-.732 1.117-1.27 1.439-.537.322-1.174.483-1.909.483-.672 0-1.252-.142-1.739-.426-.487-.284-.87-.7-1.147-1.248-.277-.55-.416-1.183-.416-1.904zm11.37 3.305c-.029-.61-.044-1.26-.044-1.951v-3.629c0-1.275.038-1.988.114-2.141.075-.152.323-.229.743-.229h.435v-.4c-.743.03-1.33.044-1.758.044a76.75 76.75 0 0 1-2.01-.044v.4h.567c.265 0 .435.033.51.099.076.065.125.199.146.4.02.201.044.817.069 1.846v3.393l-.019 1.316c-.008.546-.066.88-.173 1.004-.107.123-.369.184-.785.184h-.315v.4c.525-.02 1.191-.031 1.998-.031.474 0 1.001.012 1.581.038.382.017.672.025.87.025 1.016 0 1.755-.186 2.217-.56.458-.372.687-.876.687-1.511 0-.462-.132-.906-.397-1.332a2.888 2.888 0 0 0-1.124-1.026 3.255 3.255 0 0 0-1.554-.388c-.252 0-.567.04-.945.121l-.126.483a3.79 3.79 0 0 1 .927-.146c.58 0 1.04.177 1.38.53.34.354.51.838.51 1.453 0 .593-.182 1.055-.545 1.388-.364.333-.904.499-1.623.499-.407 0-.852-.079-1.335-.235zm7.851-4.035v-1.557l.007-.896c0-.56.006-.968.019-1.227.613-.046 1.27-.07 1.972-.07.47 0 .865.022 1.184.064.206.025.425.08.656.165.105.373.212.839.32 1.398h.423c-.113-.928-.17-1.546-.17-1.855l.013-.286c-.484-.047-.958-.07-1.424-.07l-.99.019c-1.092.03-1.894.044-2.407.044-.491 0-1.144-.014-1.96-.044v.4h.196c.366 0 .596.036.69.108.095.072.158.242.19.509.03.267.046.855.046 1.766v3.489c0 .572-.013 1.04-.04 1.404-.028.364-.057.582-.089.651a.367.367 0 0 1-.135.163c-.059.038-.24.072-.542.101l-.485.051v.394h.68l.668-.02c.374-.012.658-.018.85-.018l2.42.032 1.147.006c.39.004.785-.013 1.185-.05-.16-.5-.248-1.151-.265-1.952h-.429c0 .466-.023.854-.069 1.163-.496.187-1.105.28-1.827.28a22.52 22.52 0 0 1-1.808-.076c.004-.399 0-.797-.013-1.195l-.013-.979v-1.29c.416-.025.784-.038 1.103-.038 1 0 1.566.035 1.698.105.132.07.199.287.199.651v.413h.428c-.03-.64-.044-1.15-.044-1.531 0-.402.015-.877.044-1.423h-.428v.368c0 .407-.08.656-.237.747-.157.09-.713.136-1.666.136-.353 0-.719-.016-1.097-.05zm.712 5.375h-.428l1.865 1.799c.155.152.267.247.334.283a.473.473 0 0 0 .227.054.416.416 0 0 0 .299-.112.367.367 0 0 0 .117-.276.45.45 0 0 0-.123-.296c-.082-.095-.28-.238-.596-.428l-1.695-1.024zm7.173-5.375v-1.557l.006-.896c0-.56.006-.968.019-1.227.613-.046 1.27-.07 1.972-.07.47 0 .865.022 1.185.064.205.025.424.08.655.165.105.373.212.839.321 1.398h.422c-.113-.928-.17-1.546-.17-1.855l.013-.286c-.483-.047-.958-.07-1.424-.07l-.99.019c-1.091.03-1.894.044-2.406.044-.492 0-1.145-.014-1.96-.044v.4h.196c.365 0 .595.036.69.108.094.072.157.242.188.509.032.267.048.855.048 1.766v3.489c0 .572-.014 1.04-.041 1.404-.028.364-.057.582-.088.651a.367.367 0 0 1-.136.163c-.059.038-.24.072-.542.101l-.485.051v.394h.68l.668-.02c.374-.012.658-.018.851-.018l2.42.032 1.146.006c.391.004.786-.013 1.185-.05-.16-.5-.248-1.151-.265-1.952h-.428c0 .466-.023.854-.07 1.163-.495.187-1.104.28-1.827.28a22.52 22.52 0 0 1-1.808-.076c.004-.399 0-.797-.013-1.195l-.012-.979v-1.29c.416-.025.783-.038 1.102-.038 1 0 1.566.035 1.698.105.133.07.199.287.199.651v.413h.428c-.03-.64-.044-1.15-.044-1.531 0-.402.015-.877.044-1.423h-.428v.368c0 .407-.079.656-.236.747-.158.09-.713.136-1.667.136-.353 0-.718-.016-1.096-.05zm7.103 3.291v-4.39c0-1 .019-1.697.057-2.091.029-.301.078-.484.148-.55.069-.066.27-.113.601-.143l.404-.032v-.4c-.458.03-.872.044-1.242.044a71.1 71.1 0 0 1-1.764-.044v.4h.454c.273 0 .451.038.535.115.084.076.137.226.158.45.046.467.07 1.1.07 1.9v3.159c0 .593-.007 1.18-.02 1.76-.008.246-.04.414-.097.505a.813.813 0 0 1-.25.245c-.109.072-.262.108-.46.108h-.39v.4c.534-.03.941-.044 1.222-.044.303 0 .635.015.996.044a57.52 57.52 0 0 0 1.175-1.496 65.32 65.32 0 0 1 1.144-1.465l2.155-2.669c.777-.957 1.337-1.622 1.682-1.995v4.08c0 1.707-.03 2.64-.092 2.799-.06.159-.303.26-.727.302l-.473.044v.4c.676-.03 1.202-.044 1.575-.044.391 0 .895.015 1.513.044v-.4h-.486c-.39 0-.615-.131-.674-.394-.038-.174-.057-1.101-.056-2.783v-2.866c0-.771.033-1.692.1-2.764-.571.089-.903.153-.995.194a.782.782 0 0 0-.265.2c-.466.52-.955 1.099-1.468 1.734l-4.53 5.643zm10.723 0v-4.39c0-1 .019-1.697.057-2.091.03-.301.078-.484.148-.55.07-.066.27-.113.602-.143l.403-.032v-.4c-.458.03-.872.044-1.241.044-.257 0-.845-.014-1.765-.044v.4h.454c.273 0 .452.038.536.115.084.076.136.226.157.45.046.467.07 1.1.07 1.9v3.159c0 .593-.007 1.18-.02 1.76-.008.246-.04.414-.097.505a.813.813 0 0 1-.25.245c-.108.072-.262.108-.46.108h-.39v.4c.534-.03.941-.044 1.223-.044.302 0 .634.015.995.044a57.52 57.52 0 0 0 1.175-1.496 65.32 65.32 0 0 1 1.144-1.465l2.155-2.669c.777-.957 1.338-1.622 1.682-1.995v4.08c0 1.707-.03 2.64-.091 2.799-.061.159-.304.26-.728.302l-.473.044v.4c.677-.03 1.202-.044 1.576-.044.39 0 .894.015 1.512.044v-.4h-.485c-.391 0-.616-.131-.675-.394-.037-.174-.056-1.101-.056-2.783v-2.866c0-.771.033-1.692.1-2.764-.57.089-.903.153-.995.194a.782.782 0 0 0-.265.2c-.466.52-.955 1.099-1.468 1.734l-4.53 5.643zm11.505-3.291v-1.557l.006-.896c0-.56.006-.968.019-1.227.613-.046 1.27-.07 1.972-.07.47 0 .865.022 1.184.064.206.025.425.08.656.165.105.373.212.839.321 1.398h.422c-.113-.928-.17-1.546-.17-1.855l.013-.286c-.483-.047-.958-.07-1.424-.07l-.99.019c-1.092.03-1.894.044-2.406.044-.492 0-1.145-.014-1.96-.044v.4h.195c.366 0 .596.036.69.108.095.072.158.242.19.509.03.267.047.855.047 1.766v3.489c0 .572-.014 1.04-.041 1.404-.028.364-.057.582-.089.651a.367.367 0 0 1-.135.163c-.059.038-.24.072-.542.101l-.485.051v.394h.68l.668-.02c.374-.012.658-.018.851-.018l2.42.032 1.146.006c.39.004.786-.013 1.185-.05-.16-.5-.248-1.151-.265-1.952h-.428c0 .466-.023.854-.07 1.163-.495.187-1.104.28-1.827.28a22.52 22.52 0 0 1-1.808-.076c.004-.399 0-.797-.013-1.195l-.012-.979v-1.29a18.62 18.62 0 0 1 1.102-.038c1 0 1.566.035 1.698.105.133.07.199.287.199.651v.413h.428c-.03-.64-.044-1.15-.044-1.531 0-.402.015-.877.044-1.423h-.428v.368c0 .407-.079.656-.237.747-.157.09-.713.136-1.666.136-.353 0-.718-.016-1.096-.05zm9.648-3.68c.067.657.1 1.805.1 3.445v1.842c0 .754-.024 1.405-.075 1.951-.03.318-.068.502-.116.553-.049.05-.222.097-.52.14l-.504.076v.4a61.79 61.79 0 0 1 1.399-.031l1.695.012 1.38.026a7.955 7.955 0 0 0 1.707-.166 3.891 3.891 0 0 0 1.588-.714 3.48 3.48 0 0 0 1.083-1.348c.248-.54.372-1.163.372-1.87 0-1.433-.478-2.617-1.433-3.553-.956-.936-2.204-1.404-3.746-1.404l-.775.019c-.76.03-1.241.044-1.443.044-.34 0-.773-.025-1.298-.076v.305l.586.35zm1.361.032a10.294 10.294 0 0 1 1.5-.127c1.176 0 2.09.305 2.74.915.786.741 1.179 1.822 1.179 3.24 0 1.238-.327 2.18-.98 2.829-.653.648-1.61.972-2.87.972-.441 0-.964-.045-1.569-.134-.05-.406-.076-.868-.076-1.385v-4.156c0-.766.026-1.485.076-2.154zm10.089 3.648v-1.557l.006-.896c0-.56.006-.968.019-1.227.613-.046 1.27-.07 1.972-.07.47 0 .865.022 1.185.064.205.025.424.08.655.165.105.373.212.839.321 1.398h.422c-.113-.928-.17-1.546-.17-1.855l.013-.286c-.483-.047-.958-.07-1.424-.07l-.99.019c-1.092.03-1.894.044-2.406.044-.492 0-1.145-.014-1.96-.044v.4h.195c.366 0 .596.036.69.108.095.072.158.242.19.509.031.267.047.855.047 1.766v3.489c0 .572-.014 1.04-.041 1.404-.028.364-.057.582-.088.651a.367.367 0 0 1-.136.163c-.059.038-.24.072-.542.101l-.485.051v.394h.68l.668-.02c.374-.012.658-.018.851-.018l2.42.032 1.146.006c.39.004.786-.013 1.185-.05-.16-.5-.248-1.151-.265-1.952h-.428c0 .466-.023.854-.07 1.163-.495.187-1.104.28-1.827.28a22.52 22.52 0 0 1-1.808-.076c.004-.399 0-.797-.013-1.195l-.012-.979v-1.29c.416-.025.783-.038 1.102-.038 1 0 1.566.035 1.698.105.133.07.199.287.199.651v.413h.428c-.03-.64-.044-1.15-.044-1.531 0-.402.015-.877.044-1.423h-.428v.368c0 .407-.079.656-.236.747-.158.09-.713.136-1.667.136-.353 0-.718-.016-1.096-.05zm11.072 4.302c-.117-.441-.18-1.026-.189-1.754h-.435v.508c0 .33-.044.555-.132.674-.088.118-.318.244-.69.378-.372.133-.763.2-1.175.2-.672 0-1.2-.172-1.585-.515-.384-.343-.576-.783-.576-1.321 0-.34.079-.63.236-.874.158-.244.37-.42.637-.528.266-.108.832-.202 1.698-.282.865-.085 1.45-.197 1.754-.337.305-.14.549-.365.731-.674.183-.309.274-.675.274-1.1 0-.85-.352-1.583-1.058-2.198-.706-.614-1.647-.921-2.823-.921-.403 0-.81.041-1.22.124a7.526 7.526 0 0 0-1.237.365c.075.508.111 1.16.107 1.957h.428v-.317c0-.411.021-.666.063-.763.042-.097.141-.201.296-.311a2.56 2.56 0 0 1 .826-.378c.32-.087.664-.13 1.033-.13.794 0 1.407.188 1.84.565.433.377.649.856.649 1.436 0 .339-.073.626-.22.861-.148.235-.353.41-.618.524-.265.115-.754.201-1.468.26-.95.077-1.594.191-1.934.344a1.73 1.73 0 0 0-.8.721c-.194.328-.29.736-.29 1.223 0 .826.296 1.502.888 2.027.592.526 1.411.788 2.457.788.42 0 .841-.045 1.264-.136.422-.091.845-.23 1.27-.416zm5.35-7.982c.068.657.102 1.805.102 3.445v1.842c0 .754-.026 1.405-.076 1.951-.03.318-.068.502-.117.553-.048.05-.221.097-.52.14l-.503.076v.4a61.74 61.74 0 0 1 1.398-.031l1.695.012 1.38.026a7.955 7.955 0 0 0 1.708-.166 3.891 3.891 0 0 0 1.587-.714 3.48 3.48 0 0 0 1.084-1.348c.248-.54.372-1.163.372-1.87 0-1.433-.478-2.617-1.434-3.553-.955-.936-2.204-1.404-3.745-1.404l-.775.019c-.76.03-1.242.044-1.443.044-.34 0-.773-.025-1.298-.076v.305l.586.35zm1.362.032a10.294 10.294 0 0 1 1.5-.127c1.175 0 2.09.305 2.74.915.786.741 1.178 1.822 1.178 3.24 0 1.238-.326 2.18-.98 2.829-.653.648-1.61.972-2.87.972-.44 0-.963-.045-1.568-.134-.05-.406-.076-.868-.076-1.385v-4.156c0-.766.025-1.485.076-2.154zm12.199 3.92c.412-.596.922-1.291 1.531-2.083l1.21-1.583c.214-.27.357-.425.428-.464a.463.463 0 0 1 .22-.057h.165v-.4c-.349.03-.654.044-.914.044-.24 0-.491-.014-.756-.044l-2.23 3.037c-.416.56-.862 1.106-1.336 1.64l.063.216a7.01 7.01 0 0 1 .542-.032c.701 0 1.25.182 1.647.547.397.364.596.851.596 1.461 0 .547-.168.973-.504 1.28-.336.308-.822.461-1.456.461a3.8 3.8 0 0 1-1.33-.248 29.027 29.027 0 0 1-.075-2.16v-3.07c0-1.495.036-2.324.107-2.487.072-.163.303-.245.693-.245h.492v-.4c-.698.03-1.275.044-1.733.044-.361 0-1.014-.014-1.96-.044v.4h.473c.361 0 .575.08.643.239.067.158.1.994.1 2.506v3.057c0 1.313-.038 2.048-.116 2.205-.078.157-.33.235-.76.235h-.34v.407a44.49 44.49 0 0 1 1.79-.051c.277 0 .676.01 1.197.032.605.02 1.04.031 1.304.031.727 0 1.278-.077 1.654-.232.376-.154.662-.378.857-.67.195-.292.293-.642.293-1.048 0-.598-.213-1.125-.64-1.583-.426-.457-1.044-.77-1.855-.94zm3.945-.063c0 1.394.445 2.517 1.336 3.368.89.852 2.077 1.277 3.56 1.277 1.453 0 2.592-.395 3.418-1.185.825-.79 1.238-1.84 1.238-3.148 0-1.411-.48-2.59-1.437-3.54-.958-.949-2.165-1.423-3.623-1.423-.911 0-1.697.186-2.356.559-.66.373-1.18.917-1.563 1.633-.382.716-.573 1.536-.573 2.46zm1.279.521c0-.957.163-1.79.488-2.5.326-.71.761-1.241 1.308-1.595.546-.354 1.17-.53 1.87-.53.652 0 1.221.15 1.708.45.488.301.871.75 1.15 1.348.28.597.42 1.323.42 2.18 0 .897-.155 1.665-.464 2.303-.309.637-.732 1.117-1.27 1.439-.537.322-1.173.483-1.909.483-.672 0-1.251-.142-1.739-.426-.487-.284-.87-.7-1.146-1.248-.278-.55-.416-1.183-.416-1.904zm8.952-4.645h.396c.391 0 .625.096.703.286.078.19.117 1.104.117 2.739v2.154c0 1.695-.034 2.629-.101 2.802-.067.174-.27.261-.605.261h-.51v.4c.697-.03 1.386-.044 2.066-.044.567 0 1.082.015 1.544.044v-.4h-.485c-.299 0-.485-.036-.561-.108-.076-.072-.12-.254-.132-.546a61.58 61.58 0 0 1-.032-2.422v-2.192c0-1.648.036-2.555.107-2.723.072-.167.3-.25.687-.25h.416v-.401a37.398 37.398 0 0 1-3.61 0v.4zm8.589 8.064a27.724 27.724 0 0 1-.07-2.008v-3.622c0-1.347.034-2.09.101-2.227.067-.138.307-.207.718-.207h.473v-.4c-.744.03-1.374.044-1.89.044-.521 0-1.147-.014-1.878-.044v.4h.53c.277 0 .457.037.541.111.084.075.137.22.158.436.042.495.063 1.135.063 1.919v3.628c0 .716-.015 1.373-.044 1.97h-.643c-1.038 0-1.609-.024-1.714-.073-.105-.049-.174-.238-.208-.569l-.088-.851h-.397l.013.756c0 .305-.026.743-.076 1.315a526.28 526.28 0 0 1 4.001-.044l3.484.044a22.567 22.567 0 0 1-.138-2.071h-.39l-.064.832c-.025.288-.06.459-.107.512-.046.053-.15.086-.309.098-.462.034-.987.051-1.575.051h-.491zm9.334.153c-.118-.441-.18-1.026-.19-1.754h-.434v.508c0 .33-.044.555-.132.674-.089.118-.319.244-.69.378-.372.133-.764.2-1.175.2-.672 0-1.2-.172-1.585-.515-.384-.343-.577-.783-.577-1.321 0-.34.08-.63.237-.874.157-.244.37-.42.636-.528.267-.108.833-.202 1.698-.282.865-.085 1.45-.197 1.755-.337.304-.14.548-.365.73-.674.184-.309.275-.675.275-1.1 0-.85-.353-1.583-1.059-2.198-.705-.614-1.646-.921-2.822-.921-.404 0-.81.041-1.22.124-.41.082-.822.204-1.238.365.076.508.112 1.16.107 1.957h.429v-.317c0-.411.02-.666.063-.763.042-.097.14-.201.296-.311a2.56 2.56 0 0 1 .825-.378c.32-.087.664-.13 1.034-.13.794 0 1.407.188 1.84.565.432.377.649.856.649 1.436 0 .339-.074.626-.22.861a1.34 1.34 0 0 1-.618.524c-.265.115-.754.201-1.469.26-.949.077-1.594.191-1.934.344a1.73 1.73 0 0 0-.8.721c-.193.328-.29.736-.29 1.223 0 .826.296 1.502.889 2.027.592.526 1.41.788 2.457.788.42 0 .841-.045 1.263-.136.422-.091.845-.23 1.27-.416zm5.35-7.982c.068.657.101 1.805.101 3.445v1.842a21.8 21.8 0 0 1-.075 1.951c-.03.318-.069.502-.117.553-.048.05-.222.097-.52.14l-.504.076v.4a61.79 61.79 0 0 1 1.399-.031l1.695.012 1.38.026a7.954 7.954 0 0 0 1.707-.166 3.891 3.891 0 0 0 1.588-.714 3.48 3.48 0 0 0 1.084-1.348c.248-.54.371-1.163.371-1.87 0-1.433-.477-2.617-1.433-3.553-.956-.936-2.204-1.404-3.746-1.404l-.775.019c-.76.03-1.241.044-1.443.044-.34 0-.773-.025-1.298-.076v.305l.586.35zm1.361.032a10.294 10.294 0 0 1 1.5-.127c1.176 0 2.09.305 2.74.915.786.741 1.179 1.822 1.179 3.24 0 1.238-.327 2.18-.98 2.829-.653.648-1.61.972-2.87.972-.44 0-.964-.045-1.569-.134-.05-.406-.075-.868-.075-1.385v-4.156c0-.766.025-1.485.075-2.154zm10.089 3.648v-1.557l.006-.896c0-.56.006-.968.019-1.227.613-.046 1.27-.07 1.972-.07.47 0 .865.022 1.185.064.206.025.424.08.655.165.105.373.212.839.321 1.398h.423c-.114-.928-.17-1.546-.17-1.855l.012-.286c-.483-.047-.958-.07-1.424-.07l-.99.019c-1.091.03-1.894.044-2.406.044-.492 0-1.145-.014-1.96-.044v.4h.196c.365 0 .595.036.69.108.094.072.157.242.189.509.031.267.047.855.047 1.766v3.489c0 .572-.014 1.04-.041 1.404-.027.364-.057.582-.088.651a.367.367 0 0 1-.136.163c-.059.038-.24.072-.542.101l-.485.051v.394h.68l.669-.02c.373-.012.657-.018.85-.018l2.42.032 1.146.006c.391.004.786-.013 1.185-.05-.16-.5-.248-1.151-.265-1.952h-.428c0 .466-.023.854-.07 1.163-.495.187-1.104.28-1.827.28a22.52 22.52 0 0 1-1.808-.076c.004-.399 0-.797-.013-1.195l-.012-.979v-1.29c.416-.025.783-.038 1.102-.038 1 0 1.566.035 1.699.105.132.07.198.287.198.651v.413h.428c-.029-.64-.044-1.15-.044-1.531 0-.402.015-.877.044-1.423h-.428v.368c0 .407-.079.656-.236.747-.158.09-.713.136-1.667.136-.353 0-.718-.016-1.096-.05zm11.047-3.692a23.43 23.43 0 0 1 1.204-.032c.79 0 1.407.021 1.852.063.31.034.632.096.964.185l.378 1.493h.41c-.105-.8-.187-1.548-.246-2.243-.378-.064-.895-.095-1.55-.095l-3 .05c-.402 0-1.03-.023-1.883-.07v.337c.336.149.534.307.595.477.061.17.092.84.092 2.014v3.495c0 1.271-.03 1.98-.092 2.126-.06.146-.232.219-.513.219h-.687v.4c1-.03 1.663-.044 1.991-.044.437 0 1.03.015 1.777.044v-.4h-.781c-.223 0-.364-.065-.423-.194-.058-.129-.088-.666-.088-1.61v-4.048l.02-1.792-.02-.375zm6.202 4.708l-.183 2.847a6.016 6.016 0 0 0-.018.413c0 .187.04.33.122.43a.376.376 0 0 0 .3.148.375.375 0 0 0 .302-.146c.08-.097.12-.243.12-.438a8.25 8.25 0 0 0-.013-.407l-.189-2.847c-.012-.182-.088-.273-.227-.273-.13 0-.201.091-.214.273zm4.329-.845v-1.773c0-.305.01-.663.031-1.074.026-.576.047-.895.063-.956.017-.061.078-.124.183-.187.105-.064.275-.096.51-.096h.429v-.4a29.2 29.2 0 0 1-1.582.044c-.491 0-1.195-.014-2.11-.044v.4h.39c.441 0 .702.075.782.226.08.15.12.84.12 2.068v3.832c0 1.11-.042 1.74-.124 1.89-.082.15-.316.226-.702.226h-.466v.4a44.8 44.8 0 0 1 1.934-.044c.6 0 1.187.015 1.758.044v-.4h-.271c-.39 0-.632-.032-.725-.095-.092-.064-.149-.168-.17-.312-.033-.233-.05-.798-.05-1.696v-1.45c.748-.033 1.699-.05 2.854-.05.979 0 1.775.017 2.388.05v1.24c0 .724-.025 1.332-.076 1.824-.016.173-.073.298-.17.375-.096.076-.294.114-.592.114h-.454v.4a39.7 39.7 0 0 1 3.768 0v-.4h-.479c-.323 0-.53-.036-.62-.108-.09-.072-.145-.204-.164-.397-.019-.193-.028-.8-.028-1.82v-3.515c0-1.3.036-2.026.11-2.176.073-.15.303-.226.69-.226h.491v-.4a40.72 40.72 0 0 1-3.768 0v.4h.435c.32 0 .525.037.618.111.092.075.149.213.17.417.046.436.07 1.071.07 1.906v1.652a41.1 41.1 0 0 1-2.27.051c-1.31 0-2.301-.017-2.973-.05zm8.272.038c0 1.394.446 2.517 1.336 3.368.89.852 2.077 1.277 3.56 1.277 1.453 0 2.593-.395 3.418-1.185.826-.79 1.238-1.84 1.238-3.148 0-1.411-.479-2.59-1.436-3.54-.958-.949-2.166-1.423-3.623-1.423-.912 0-1.697.186-2.357.559-.66.373-1.18.917-1.562 1.633-.383.716-.574 1.536-.574 2.46zm1.28.521c0-.957.162-1.79.488-2.5.325-.71.761-1.241 1.307-1.595.546-.354 1.17-.53 1.871-.53.652 0 1.22.15 1.708.45.487.301.87.75 1.15 1.348.28.597.419 1.323.419 2.18 0 .897-.154 1.665-.463 2.303-.309.637-.732 1.117-1.27 1.439-.537.322-1.174.483-1.909.483-.672 0-1.252-.142-1.739-.426-.487-.284-.87-.7-1.147-1.248-.277-.55-.416-1.183-.416-1.904zm18.1 2.625l-1.871-3.927a76.043 76.043 0 0 1-1.727-3.864h-.252c-.155.377-.6 1.345-1.336 2.904l-2.255 4.709v-4.912c0-1.144.045-1.793.135-1.948.09-.154.37-.232.841-.232h.233v-.4a28.68 28.68 0 0 1-1.424.044c-.264 0-.791-.014-1.581-.044v.4h.41c.277 0 .462.04.554.121.092.08.15.227.17.438.055.594.082 1.233.082 1.92v3.596c0 .869-.019 1.443-.057 1.722a.449.449 0 0 1-.186.33c-.107.077-.32.115-.64.115h-.333v.4c.73-.03 1.19-.044 1.38-.044.24 0 .58.015 1.02.044.509-1.14 1.095-2.395 1.758-3.768l1.658-3.438 1.53 3.184a127.03 127.03 0 0 1 1.84 4.022c.526-.03.895-.044 1.11-.044.247 0 .695.015 1.341.044v-.4h-.41c-.369 0-.595-.065-.676-.194-.082-.129-.123-.594-.123-1.395v-4.645c0-1.033.043-1.626.129-1.779.086-.152.326-.229.721-.229h.36v-.4a33.1 33.1 0 0 1-1.677.044 40.12 40.12 0 0 1-1.846-.044v.4h.416c.332 0 .533.073.602.22.07.146.104.774.104 1.884v5.166zm12.181 0l-1.871-3.927a76.05 76.05 0 0 1-1.726-3.864h-.253c-.155.377-.6 1.345-1.335 2.904l-2.256 4.709v-4.912c0-1.144.045-1.793.135-1.948.09-.154.371-.232.842-.232h.233v-.4a28.75 28.75 0 0 1-1.424.044c-.265 0-.792-.014-1.582-.044v.4h.41c.277 0 .462.04.554.121.093.08.15.227.17.438.055.594.082 1.233.082 1.92v3.596c0 .869-.019 1.443-.056 1.722a.449.449 0 0 1-.186.33c-.107.077-.32.115-.64.115h-.334v.4c.731-.03 1.191-.044 1.38-.044.24 0 .58.015 1.02.044.51-1.14 1.095-2.395 1.759-3.768l1.657-3.438 1.531 3.184a126.684 126.684 0 0 1 1.84 4.022c.525-.03.895-.044 1.109-.044.248 0 .695.015 1.342.044v-.4h-.41c-.37 0-.595-.065-.677-.194-.082-.129-.123-.594-.123-1.395v-4.645c0-1.033.043-1.626.13-1.779.085-.152.326-.229.72-.229h.36v-.4a32.69 32.69 0 0 1-1.676.044 39.58 39.58 0 0 1-1.846-.044v.4h.416c.331 0 .532.073.601.22.07.146.104.774.104 1.884v5.166zm5.535-3.355v-1.557l.006-.896c0-.56.007-.968.02-1.227.612-.046 1.27-.07 1.971-.07a9.3 9.3 0 0 1 1.185.064c.206.025.424.08.655.165.105.373.212.839.321 1.398h.423c-.114-.928-.17-1.546-.17-1.855l.012-.286c-.483-.047-.958-.07-1.424-.07l-.99.019c-1.091.03-1.894.044-2.406.044-.491 0-1.145-.014-1.96-.044v.4h.196c.365 0 .595.036.69.108.094.072.157.242.189.509.031.267.047.855.047 1.766v3.489c0 .572-.014 1.04-.041 1.404-.027.364-.057.582-.088.651a.367.367 0 0 1-.136.163c-.058.038-.24.072-.542.101l-.485.051v.394h.68l.669-.02c.374-.012.657-.018.85-.018l2.42.032 1.147.006c.39.004.785-.013 1.184-.05-.16-.5-.248-1.151-.265-1.952h-.428c0 .466-.023.854-.07 1.163-.495.187-1.104.28-1.827.28a22.52 22.52 0 0 1-1.808-.076c.004-.399 0-.797-.012-1.195l-.013-.979v-1.29c.416-.025.783-.038 1.103-.038 1 0 1.565.035 1.698.105.132.07.198.287.198.651v.413h.429c-.03-.64-.045-1.15-.045-1.531 0-.402.015-.877.045-1.423h-.429v.368c0 .407-.079.656-.236.747-.158.09-.713.136-1.667.136-.353 0-.718-.016-1.096-.05z" font-size="14.927"/></g></svg>