<svg id="Layer_1" data-name="Layer 1" xmlns="http://www.w3.org/2000/svg" viewBox="0 0 20 16.82"><defs><style>.cls-1{fill:#fff;}</style></defs><title>icon-telegram</title><path class="cls-1" d="M3828.26,3979.39a0.31,0.31,0,0,0-.31-0.07l-19.38,6.28a0.31,0.31,0,0,0-.08.55l4.56,3.13,1,6.18v0h0v0h0l0,0h0.44l0,0h0l3-3.26,5.43,3.73a0.32,0.32,0,0,0,.18.05l0.1,0a0.3,0.3,0,0,0,.19-0.2l4.9-16.21A0.31,0.31,0,0,0,3828.26,3979.39Zm-2.27,1.21-12.65,8.12-4-2.73Zm-10,10.27h0v0h0v0h0l-1.5,3.35-0.79-5.08,11.84-7.6Zm-0.65,2.91,1-2.22L3817,3992Zm7.58,1.54-6.23-4.28,10.67-10.38Z" transform="translate(-3808.36 -3979.31)"/></svg>