<svg version="1.0" xmlns="http://www.w3.org/2000/svg" width="104" height="104" viewBox="0 0 78 78"><path d="M1.6 1.6C-.6 3.8-.4 7.7 2 9c1.4.8 2 2.1 2 4.5 0 1.9.3 3.5.8 3.5.4 0 .7-1.6.6-3.5-.2-2.8.2-3.5 1.7-3.5C8.9 10 9 11.2 9 39c0 28.3 0 29-2 29-1.1 0-2-.5-2-1.1 0-.5-1.1.2-2.5 1.7S0 72.3 0 73.6c0 4.2 7 6.1 9 2.4 1-1.8 2.1-2 11.5-2 5.8 0 10.5-.3 10.5-.8 0-.4-4.6-.7-10.2-.7-9 0-10.3-.2-10.6-1.8-.3-1.6 1.6-1.7 28.7-1.7 28 0 29.1.1 29.1 1.9 0 1.8-.8 1.9-10 1.9-5.6 0-10.4.2-10.7.6-.3.3 4.1.6 9.8.6 9.2 0 10.7.2 12.2 2 2.2 2.6 6.3 2.6 7.7.1 1.5-2.9 1.2-4.9-1-6.8-1.1-1-2-2.8-2-4 0-1.3-.4-2.3-.9-2.3-.4 0-.6 1.1-.3 2.5.3 2 0 2.5-1.7 2.5-2.1 0-2.1-.1-2.1-29.1V9.8l2.1.5c2.8.7 6.9-2 6.9-4.5C78 .3 72.7-2 69.3 2c-1.5 1.8-3 2-12.2 2-5.7 0-10.2.2-9.9.5.3.4 5.1.6 10.7.7 9.2 0 10.1.2 10.1 1.9C68 8.9 66.8 9 39 9c-28.2 0-29-.1-29-2 0-1.8.7-1.9 10.1-1.9 5.6 0 10.4-.2 10.7-.5.3-.3-4.3-.6-10.1-.6C11.1 4 10 3.8 9 2 7.7-.4 3.8-.6 1.6 1.6zm6.2.6c.7.7 1.2 2.5 1.2 4C9 8.6 8.6 9 6.2 9c-1.5 0-3.3-.5-4-1.2C-.2 5.4 1.5 1 5 1c.9 0 2.1.5 2.8 1.2zm68.6 1c1.6 2.6-.4 5.2-4.3 5.6-2.8.3-3.1.1-3.1-2.5 0-5.1 4.9-7.1 7.4-3.1zM23 12c-.7 1.2-.7 2.7-.2 3.7 1 1.8.8 3.3-.9 6.8-1.8 3.9-4.9 13.8-4.9 15.7 0 2.7 4.5 6.8 7.3 6.8 3.4 0 7.7-3.6 7.7-6.5 0-1.4-1.3-6.1-3-10.7-1.6-4.5-3-8.3-3-8.5 0-.2 2.5-.3 5.5-.3 6 0 6.1.1 4.3 3.3-.7 1.3-1.3 6.8-1.4 13.1-.1 9-.4 11-1.8 11.8-1.4.8-1.5 1.2-.4 2.5 1 1.3 1 1.7.1 2-2.3.8-1.5 4.3 1 4.4 11.5.8 16.2-.6 13.5-3.8-.5-.7-.8-1.9-.5-2.8.4-.8-.1-1.8-1-2.3-1-.6-1.5-2.4-1.6-5.6 0-2.5-.3-4.6-.7-4.6-.4 0-.6 2.3-.5 5 .1 2.8-.2 5.3-.7 5.6-.4.3-.8 2-.8 3.9 0 2.8-.4 3.3-2 3.2-1.6-.1-2-.8-2-3.4 0-1.7-.3-3.4-.8-3.6-.6-.4-.9-18.1-.3-22.2 0-.6 1.6-.9 3.3-.9 2.4.1 3.3.6 3.2 1.8-.1.9.2 1.6.7 1.6 1.3 0 1-2.1-.6-5-2.2-3.8-1.9-4 4-4 3 0 5.5.2 5.5.4s-1.5 4.4-3.4 9.4c-2.8 7.5-3.2 9.5-2.2 11.4 2.9 5.7 10.2 6.1 13.5.7 1.8-3 1.8-3-1.6-12.2-3.7-9.8-4-11.3-2.9-13.8.4-1 .1-2.3-.9-3.3-1.5-1.5-1.1-1.6 5.9-1.6H68v58H10V10h7c6.8 0 7 .1 6 2zm28.6-.8c.4.6.3.8-.3.5-1.2-.7-2.5 1.7-1.6 2.7 1.3 1.2 3.3.5 3.3-1.1 0-1.3.3-1.4 1.2-.5.9.9.7 1.6-.7 3.2-1.6 1.8-3 2-14.5 2-10.9 0-12.9-.3-14.3-1.8C23.6 15 23.4 14 24 13c.8-1.3 1-1.2 1 .2 0 2.1 1.3 2.3 2.9.5.8-1 .7-1.7-.1-2.5-.9-.9 1.6-1.2 10.9-1.2 8.1 0 12.4.4 12.9 1.2zm-21.8 22l1 3.6-5.9-.3c-3.3-.1-6.1-.4-6.3-.6-.3-.2 1-4 2.7-8.4l3-8 2.3 5.1c1.2 2.8 2.7 6.7 3.2 8.6zm10.5-11.7c.7 1.6-.8 2.9-2.3 2-1-.6-.2-3.5 1-3.5.4 0 1 .7 1.3 1.5zm17 7.3c1.5 4 2.7 7.4 2.7 7.5 0 .1-2.9.2-6.5.2-3.6.1-6.5-.1-6.5-.2 0-1.9 6.4-16.3 7-15.6.4.4 1.9 4.1 3.3 8.1zm-30.9 9.1c2.8.1 2.9.1 1.1 2.1-2.2 2.4-3.3 2.5-5.7.3-2.3-2-2.3-3.2 0-2.8.9.2 3 .4 4.6.4zm30.7.4c.3 3.1-3.6 4.3-6.3 1.9-1-.8-1.6-1.7-1.4-2.1.6-.9 7.6-.7 7.7.2zM24.5 43c.9 0 2.7-1.1 4-2.5 2.7-2.6 3.1-2.5 1.5.5-.5 1-2.4 2.1-4.1 2.5-2.4.6-3.6.2-5.5-1.6-1.3-1.2-2.4-2.6-2.4-3 0-.5 1.1.3 2.5 1.6 1.3 1.4 3.1 2.5 4 2.5zm29 0c.9 0 2.7-1.1 4-2.5 3.1-3 3.3-2 .3 1.2-1.2 1.3-3.1 2.3-4.3 2.3-2.2 0-6.5-3.3-6.5-5 0-.5 1.1.2 2.5 1.5 1.3 1.4 3.1 2.5 4 2.5zm-8 6c-.4.6-1.1.8-1.6.5-.5-.3-.7.8-.5 2.4.2 1.7-.1 3.1-.5 3.1-1 0-1.2-5.4-.2-6.3 1-1.1 3.5-.8 2.8.3zM36 52c0 1.6-.4 3-.8 3-.5 0-.8-1-.6-2.3.1-1.2.3-2.5.3-3 .3-2.1 1.1-.3 1.1 2.3zM8.8 72.1c-.4 3.9-3 5.9-5.5 4.3C-.8 73.9 1.2 69 6.2 69c2.7 0 2.9.3 2.6 3.1zM75.1 70c3.4 1.9 1.8 7-2.3 7-2 0-3.8-2.8-3.8-5.9 0-2.3 2.8-2.8 6.1-1.1z"/><path d="M38.9 26.2c-.5 1.4-.4 13.6.2 13.3.6-.5.9-13.5.2-13.5-.2 0-.3.1-.4.2zm3.1 3.7c0 .6.4 1.2.8 1.5.5.3.9-.1.9-.9s-.4-1.5-.9-1.5c-.4 0-.8.4-.8.9zm.3 4.6c0 .8.4 1.5.9 1.5.4 0 .8-.7.8-1.5s-.4-1.5-.8-1.5c-.5 0-.9.7-.9 1.5zm-4 8.5c-.1 1.1.2 2.2.6 2.5.5.2.9-.7.9-2 0-3-1.3-3.4-1.5-.5zm.1 6.9c.2 4.3 1.4 4.9 1.3.7-.1-2-.4-3.6-.8-3.6s-.6 1.3-.5 2.9zm-14.1 8.8c-1.3.2-2.3 1.1-2.3 1.8 0 .8.6 1.2 1.3.9 1-.4 1.3.4.9 2.8-.6 4.6 1.4 2.4 2.2-2.5.4-2 .6-3.6.4-3.6-.2.1-1.3.4-2.5.6zm9.3 2.7c-1.8 3.9-2 4.7-.8 4.5.4-.1.6-.5.5-1-.2-.5.4-.9 1.2-.9.8 0 1.5.6 1.5 1.4 0 .8 1.1 1.3 3 1.2 1.7-.1 3-.7 3-1.4 0-1.7 1.1-1.5 2.5.5 2.4 3.3 3.3.4 1.2-3.9l-2.1-4.3-1.6 3.8c-.8 2-1.8 3.7-2.2 3.7-.4 0-1.6-1.6-2.6-3.6l-1.9-3.6-1.7 3.6zM49 60c-1.7 3.3-.3 6 3.1 6 1.6 0 2.9-.4 2.9-1 0-.5-.7-.7-1.6-.3-2 .7-3.3-1.2-2.7-3.8.6-2.1 2.9-2.5 3.6-.7.3.8.6.6.6-.5.1-2.5-4.5-2.3-5.9.3zm23.5-47c.3.5.8 1 1.1 1 .2 0 .4-.5.4-1 0-.6-.5-1-1.1-1-.5 0-.7.4-.4 1zm.1 3.5c.4.8.8 1.5 1 1.5.2 0 .4-.7.4-1.5s-.4-1.5-1-1.5c-.5 0-.7.7-.4 1.5zM4 19.5c0 .8.4 1.5 1 1.5.5 0 .7-.7.4-1.5-.4-.8-.8-1.5-1-1.5-.2 0-.4.7-.4 1.5zm68.8 2c.2 1.4.6 2.5.8 2.5.2 0 .4-1.1.4-2.5s-.4-2.5-.9-2.5c-.4 0-.6 1.1-.3 2.5zm-68.5 5c0 2.7.2 3.8.4 2.2.2-1.5.2-3.7 0-5-.2-1.2-.4 0-.4 2.8zM72.8 28c.2 1.6.6 3 .8 3 .2 0 .4-1.4.4-3 0-1.7-.4-3-.8-3-.5 0-.7 1.3-.4 3zM4 51c0 2.2.3 4 .8 4 .4 0 .6-1.8.4-4-.2-2.2-.6-4-.8-4-.2 0-.4 1.8-.4 4zm69.1-2.4c0 1.1.3 1.4.6.6.3-.7.2-1.6-.1-1.9-.3-.4-.6.2-.5 1.3zm-.3 4.9c.2 1.4.6 2.5.8 2.5.2 0 .4-1.1.4-2.5s-.4-2.5-.9-2.5c-.4 0-.6 1.1-.3 2.5zM4.1 60.2c-.1 2.7.3 4.8.7 4.8.4 0 .6-1.7.4-3.8-.5-5.8-1-6.2-1.1-1zm68.7-.7c.2 1.4.6 2.5.8 2.5.2 0 .4-1.1.4-2.5s-.4-2.5-.9-2.5c-.4 0-.6 1.1-.3 2.5z"/></svg>