<?xml version="1.0" standalone="no"?>
<!DOCTYPE svg PUBLIC "-//W3C//DTD SVG 20010904//EN"
 "http://www.w3.org/TR/2001/REC-SVG-20010904/DTD/svg10.dtd">
<svg version="1.0" xmlns="http://www.w3.org/2000/svg"
 width="78.000000pt" height="78.000000pt" viewBox="0 0 78.000000 78.000000"
 preserveAspectRatio="xMidYMid meet">
<metadata>
Created by potrace 1.11, written by Peter Selinger 2001-2013
</metadata>
<g transform="translate(0.000000,78.000000) scale(0.100000,-0.100000)"
fill="#000000" stroke="none">
<path d="M16 764 c-22 -22 -20 -61 4 -74 14 -8 20 -21 20 -45 0 -19 3 -35 8
-35 4 0 7 16 6 35 -2 28 2 35 17 35 18 0 19 -12 19 -290 0 -283 0 -290 -20
-290 -11 0 -20 5 -20 11 0 5 -11 -2 -25 -17 -14 -15 -25 -37 -25 -50 0 -42 70
-61 90 -24 10 18 21 20 115 20 58 0 105 3 105 8 0 4 -46 7 -102 7 -90 0 -103
2 -106 18 -3 16 16 17 287 17 280 0 291 -1 291 -19 0 -18 -8 -19 -100 -19 -56
0 -104 -2 -107 -6 -3 -3 41 -6 98 -6 92 0 107 -2 122 -20 22 -26 63 -26 77 -1
15 29 12 49 -10 68 -11 10 -20 28 -20 40 0 13 -4 23 -9 23 -4 0 -6 -11 -3 -25
3 -20 0 -25 -17 -25 -21 0 -21 1 -21 291 l0 291 21 -5 c28 -7 69 20 69 45 0
55 -53 78 -87 38 -15 -18 -30 -20 -122 -20 -57 0 -102 -2 -99 -5 3 -4 51 -6
107 -7 92 0 101 -2 101 -19 0 -18 -12 -19 -290 -19 -282 0 -290 1 -290 20 0
18 7 19 101 19 56 0 104 2 107 5 3 3 -43 6 -101 6 -96 0 -107 2 -117 20 -13
24 -52 26 -74 4z m62 -6 c7 -7 12 -25 12 -40 0 -24 -4 -28 -28 -28 -15 0 -33
5 -40 12 -24 24 -7 68 28 68 9 0 21 -5 28 -12z m686 -10 c16 -26 -4 -52 -43
-56 -28 -3 -31 -1 -31 25 0 51 49 71 74 31z m-534 -88 c-7 -12 -7 -27 -2 -37
10 -18 8 -33 -9 -68 -18 -39 -49 -138 -49 -157 0 -27 45 -68 73 -68 34 0 77
36 77 65 0 14 -13 61 -30 107 -16 45 -30 83 -30 85 0 2 25 3 55 3 60 0 61 -1
43 -33 -7 -13 -13 -68 -14 -131 -1 -90 -4 -110 -18 -118 -14 -8 -15 -12 -4
-25 10 -13 10 -17 1 -20 -23 -8 -15 -43 10 -44 115 -8 162 6 135 38 -5 7 -8
19 -5 28 4 8 -1 18 -10 23 -10 6 -15 24 -16 56 0 25 -3 46 -7 46 -4 0 -6 -23
-5 -50 1 -28 -2 -53 -7 -56 -4 -3 -8 -20 -8 -39 0 -28 -4 -33 -20 -32 -16 1
-20 8 -20 34 0 17 -3 34 -8 36 -6 4 -9 181 -3 222 0 6 16 9 33 9 24 -1 33 -6
32 -18 -1 -9 2 -16 7 -16 13 0 10 21 -6 50 -22 38 -19 40 40 40 30 0 55 -2 55
-4 0 -2 -15 -44 -34 -94 -28 -75 -32 -95 -22 -114 29 -57 102 -61 135 -7 18
30 18 30 -16 122 -37 98 -40 113 -29 138 4 10 1 23 -9 33 -15 15 -11 16 59 16
l76 0 0 -290 0 -290 -290 0 -290 0 0 290 0 290 70 0 c68 0 70 -1 60 -20z m286
8 c4 -6 3 -8 -3 -5 -12 7 -25 -17 -16 -27 13 -12 33 -5 33 11 0 13 3 14 12 5
9 -9 7 -16 -7 -32 -16 -18 -30 -20 -145 -20 -109 0 -129 3 -143 18 -11 12 -13
22 -7 32 8 13 10 12 10 -2 0 -21 13 -23 29 -5 8 10 7 17 -1 25 -9 9 16 12 109
12 81 0 124 -4 129 -12z m-218 -220 l10 -36 -59 3 c-33 1 -61 4 -63 6 -3 2 10
40 27 84 l30 80 23 -51 c12 -28 27 -67 32 -86z m105 117 c7 -16 -8 -29 -23
-20 -10 6 -2 35 10 35 4 0 10 -7 13 -15z m170 -73 c15 -40 27 -74 27 -75 0 -1
-29 -2 -65 -2 -36 -1 -65 1 -65 2 0 19 64 163 70 156 4 -4 19 -41 33 -81z
m-309 -91 c28 -1 29 -1 11 -21 -22 -24 -33 -25 -57 -3 -23 20 -23 32 0 28 9
-2 30 -4 46 -4z m307 -4 c3 -31 -36 -43 -63 -19 -10 8 -16 17 -14 21 6 9 76 7
77 -2z m-326 -47 c9 0 27 11 40 25 27 26 31 25 15 -5 -5 -10 -24 -21 -41 -25
-24 -6 -36 -2 -55 16 -13 12 -24 26 -24 30 0 5 11 -3 25 -16 13 -14 31 -25 40
-25z m290 0 c9 0 27 11 40 25 31 30 33 20 3 -12 -12 -13 -31 -23 -43 -23 -22
0 -65 33 -65 50 0 5 11 -2 25 -15 13 -14 31 -25 40 -25z m-80 -60 c-4 -6 -11
-8 -16 -5 -5 3 -7 -8 -5 -24 2 -17 -1 -31 -5 -31 -10 0 -12 54 -2 63 10 11 35
8 28 -3z m-95 -30 c0 -16 -4 -30 -8 -30 -5 0 -8 10 -6 23 1 12 3 25 3 30 3 21
11 3 11 -23z m-272 -201 c-4 -39 -30 -59 -55 -43 -41 25 -21 74 29 74 27 0 29
-3 26 -31z m663 21 c34 -19 18 -70 -23 -70 -20 0 -38 28 -38 59 0 23 28 28 61
11z"/>
<path d="M389 518 c-5 -14 -4 -136 2 -133 6 5 9 135 2 135 -2 0 -3 -1 -4 -2z"/>
<path d="M420 481 c0 -6 4 -12 8 -15 5 -3 9 1 9 9 0 8 -4 15 -9 15 -4 0 -8 -4
-8 -9z"/>
<path d="M423 435 c0 -8 4 -15 9 -15 4 0 8 7 8 15 0 8 -4 15 -8 15 -5 0 -9 -7
-9 -15z"/>
<path d="M383 350 c-1 -11 2 -22 6 -25 5 -2 9 7 9 20 0 30 -13 34 -15 5z"/>
<path d="M384 281 c2 -43 14 -49 13 -7 -1 20 -4 36 -8 36 -4 0 -6 -13 -5 -29z"/>
<path d="M243 193 c-13 -2 -23 -11 -23 -18 0 -8 6 -12 13 -9 10 4 13 -4 9 -28
-6 -46 14 -24 22 25 4 20 6 36 4 36 -2 -1 -13 -4 -25 -6z"/>
<path d="M336 166 c-18 -39 -20 -47 -8 -45 4 1 6 5 5 10 -2 5 4 9 12 9 8 0 15
-6 15 -14 0 -8 11 -13 30 -12 17 1 30 7 30 14 0 17 11 15 25 -5 24 -33 33 -4
12 39 l-21 43 -16 -38 c-8 -20 -18 -37 -22 -37 -4 0 -16 16 -26 36 l-19 36
-17 -36z"/>
<path d="M490 180 c-17 -33 -3 -60 31 -60 16 0 29 4 29 10 0 5 -7 7 -16 3 -20
-7 -33 12 -27 38 6 21 29 25 36 7 3 -8 6 -6 6 5 1 25 -45 23 -59 -3z"/>
<path d="M725 650 c3 -5 8 -10 11 -10 2 0 4 5 4 10 0 6 -5 10 -11 10 -5 0 -7
-4 -4 -10z"/>
<path d="M726 615 c4 -8 8 -15 10 -15 2 0 4 7 4 15 0 8 -4 15 -10 15 -5 0 -7
-7 -4 -15z"/>
<path d="M40 585 c0 -8 4 -15 10 -15 5 0 7 7 4 15 -4 8 -8 15 -10 15 -2 0 -4
-7 -4 -15z"/>
<path d="M728 565 c2 -14 6 -25 8 -25 2 0 4 11 4 25 0 14 -4 25 -9 25 -4 0 -6
-11 -3 -25z"/>
<path d="M43 515 c0 -27 2 -38 4 -22 2 15 2 37 0 50 -2 12 -4 0 -4 -28z"/>
<path d="M728 500 c2 -16 6 -30 8 -30 2 0 4 14 4 30 0 17 -4 30 -8 30 -5 0 -7
-13 -4 -30z"/>
<path d="M40 270 c0 -22 3 -40 8 -40 4 0 6 18 4 40 -2 22 -6 40 -8 40 -2 0 -4
-18 -4 -40z"/>
<path d="M731 294 c0 -11 3 -14 6 -6 3 7 2 16 -1 19 -3 4 -6 -2 -5 -13z"/>
<path d="M728 245 c2 -14 6 -25 8 -25 2 0 4 11 4 25 0 14 -4 25 -9 25 -4 0 -6
-11 -3 -25z"/>
<path d="M41 178 c-1 -27 3 -48 7 -48 4 0 6 17 4 38 -5 58 -10 62 -11 10z"/>
<path d="M728 185 c2 -14 6 -25 8 -25 2 0 4 11 4 25 0 14 -4 25 -9 25 -4 0 -6
-11 -3 -25z"/>
</g>
</svg>
